<?xml version="1.0" encoding="utf-8" standalone="no"?>
<!DOCTYPE svg PUBLIC "-//W3C//DTD SVG 1.1//EN"
  "http://www.w3.org/Graphics/SVG/1.1/DTD/svg11.dtd">
<!-- Created with matplotlib (http://matplotlib.org/) -->
<svg height="144pt" version="1.1" viewBox="0 0 216 144" width="216pt" xmlns="http://www.w3.org/2000/svg" xmlns:xlink="http://www.w3.org/1999/xlink">
 <defs>
  <style type="text/css">
*{stroke-linecap:butt;stroke-linejoin:round;}
  </style>
 </defs>
 <g id="figure_1">
  <g id="patch_1">
   <path d="M 0 144 
L 216 144 
L 216 0 
L 0 0 
z
" style="fill:#ffffff;"/>
  </g>
  <g id="axes_1">
   <g id="patch_2">
    <path d="M 43.04 105.64 
L 202.68 105.64 
L 202.68 13.68 
L 43.04 13.68 
z
" style="fill:#ffffff;"/>
   </g>
   <g id="PolyCollection_1">
    <path clip-path="url(#p9b7c65473c)" d="M 96.253333 101.042 
L 96.253333 105.64 
L 98.470556 105.64 
L 100.687778 105.64 
L 102.905 105.64 
L 105.122222 105.64 
L 107.339444 105.64 
L 109.556667 105.64 
L 111.773889 105.64 
L 113.991111 105.64 
L 116.208333 105.64 
L 118.425556 105.64 
L 120.642778 105.64 
L 122.86 105.64 
L 125.077222 105.64 
L 127.294444 105.64 
L 129.511667 105.64 
L 131.728889 105.64 
L 133.946111 105.64 
L 136.163333 105.64 
L 138.380556 105.64 
L 138.380556 101.042 
L 138.380556 101.042 
L 136.163333 101.042 
L 133.946111 101.042 
L 131.728889 101.042 
L 129.511667 101.042 
L 127.294444 101.042 
L 125.077222 101.042 
L 122.86 101.042 
L 120.642778 101.042 
L 118.425556 101.042 
L 116.208333 101.042 
L 113.991111 101.042 
L 111.773889 101.042 
L 109.556667 101.042 
L 107.339444 101.042 
L 105.122222 101.042 
L 102.905 101.042 
L 100.687778 101.042 
L 98.470556 101.042 
L 96.253333 101.042 
z
" style="fill-opacity:0.2;"/>
   </g>
   <g id="matplotlib.axis_1">
    <g id="xtick_1">
     <g id="line2d_1">
      <defs>
       <path d="M 0 0 
L 0 3.5 
" id="m84994ea1d3" style="stroke:#000000;stroke-width:0.8;"/>
      </defs>
      <g>
       <use style="stroke:#000000;stroke-width:0.8;" x="78.515556" xlink:href="#m84994ea1d3" y="105.64"/>
      </g>
     </g>
     <g id="text_1">
      <!-- 0 -->
      <defs>
       <path d="M 31.78125 66.40625 
Q 24.171875 66.40625 20.328125 58.90625 
Q 16.5 51.421875 16.5 36.375 
Q 16.5 21.390625 20.328125 13.890625 
Q 24.171875 6.390625 31.78125 6.390625 
Q 39.453125 6.390625 43.28125 13.890625 
Q 47.125 21.390625 47.125 36.375 
Q 47.125 51.421875 43.28125 58.90625 
Q 39.453125 66.40625 31.78125 66.40625 
z
M 31.78125 74.21875 
Q 44.046875 74.21875 50.515625 64.515625 
Q 56.984375 54.828125 56.984375 36.375 
Q 56.984375 17.96875 50.515625 8.265625 
Q 44.046875 -1.421875 31.78125 -1.421875 
Q 19.53125 -1.421875 13.0625 8.265625 
Q 6.59375 17.96875 6.59375 36.375 
Q 6.59375 54.828125 13.0625 64.515625 
Q 19.53125 74.21875 31.78125 74.21875 
z
" id="DejaVuSans-30"/>
      </defs>
      <g transform="translate(76.129618 118.338828)scale(0.075 -0.075)">
       <use xlink:href="#DejaVuSans-30"/>
      </g>
     </g>
    </g>
    <g id="xtick_2">
     <g id="line2d_2">
      <g>
       <use style="stroke:#000000;stroke-width:0.8;" x="122.86" xlink:href="#m84994ea1d3" y="105.64"/>
      </g>
     </g>
     <g id="text_2">
      <!-- 500 -->
      <defs>
       <path d="M 10.796875 72.90625 
L 49.515625 72.90625 
L 49.515625 64.59375 
L 19.828125 64.59375 
L 19.828125 46.734375 
Q 21.96875 47.46875 24.109375 47.828125 
Q 26.265625 48.1875 28.421875 48.1875 
Q 40.625 48.1875 47.75 41.5 
Q 54.890625 34.8125 54.890625 23.390625 
Q 54.890625 11.625 47.5625 5.09375 
Q 40.234375 -1.421875 26.90625 -1.421875 
Q 22.3125 -1.421875 17.546875 -0.640625 
Q 12.796875 0.140625 7.71875 1.703125 
L 7.71875 11.625 
Q 12.109375 9.234375 16.796875 8.0625 
Q 21.484375 6.890625 26.703125 6.890625 
Q 35.15625 6.890625 40.078125 11.328125 
Q 45.015625 15.765625 45.015625 23.390625 
Q 45.015625 31 40.078125 35.4375 
Q 35.15625 39.890625 26.703125 39.890625 
Q 22.75 39.890625 18.8125 39.015625 
Q 14.890625 38.140625 10.796875 36.28125 
z
" id="DejaVuSans-35"/>
      </defs>
      <g transform="translate(115.702187 118.338828)scale(0.075 -0.075)">
       <use xlink:href="#DejaVuSans-35"/>
       <use x="63.623047" xlink:href="#DejaVuSans-30"/>
       <use x="127.246094" xlink:href="#DejaVuSans-30"/>
      </g>
     </g>
    </g>
    <g id="xtick_3">
     <g id="line2d_3">
      <g>
       <use style="stroke:#000000;stroke-width:0.8;" x="167.204444" xlink:href="#m84994ea1d3" y="105.64"/>
      </g>
     </g>
     <g id="text_3">
      <!-- 1000 -->
      <defs>
       <path d="M 12.40625 8.296875 
L 28.515625 8.296875 
L 28.515625 63.921875 
L 10.984375 60.40625 
L 10.984375 69.390625 
L 28.421875 72.90625 
L 38.28125 72.90625 
L 38.28125 8.296875 
L 54.390625 8.296875 
L 54.390625 0 
L 12.40625 0 
z
" id="DejaVuSans-31"/>
      </defs>
      <g transform="translate(157.660694 118.338828)scale(0.075 -0.075)">
       <use xlink:href="#DejaVuSans-31"/>
       <use x="63.623047" xlink:href="#DejaVuSans-30"/>
       <use x="127.246094" xlink:href="#DejaVuSans-30"/>
       <use x="190.869141" xlink:href="#DejaVuSans-30"/>
      </g>
     </g>
    </g>
    <g id="text_4">
     <!-- time [ms] -->
     <defs>
      <path d="M 18.3125 70.21875 
L 18.3125 54.6875 
L 36.8125 54.6875 
L 36.8125 47.703125 
L 18.3125 47.703125 
L 18.3125 18.015625 
Q 18.3125 11.328125 20.140625 9.421875 
Q 21.96875 7.515625 27.59375 7.515625 
L 36.8125 7.515625 
L 36.8125 0 
L 27.59375 0 
Q 17.1875 0 13.234375 3.875 
Q 9.28125 7.765625 9.28125 18.015625 
L 9.28125 47.703125 
L 2.6875 47.703125 
L 2.6875 54.6875 
L 9.28125 54.6875 
L 9.28125 70.21875 
z
" id="DejaVuSans-74"/>
      <path d="M 9.421875 54.6875 
L 18.40625 54.6875 
L 18.40625 0 
L 9.421875 0 
z
M 9.421875 75.984375 
L 18.40625 75.984375 
L 18.40625 64.59375 
L 9.421875 64.59375 
z
" id="DejaVuSans-69"/>
      <path d="M 52 44.1875 
Q 55.375 50.25 60.0625 53.125 
Q 64.75 56 71.09375 56 
Q 79.640625 56 84.28125 50.015625 
Q 88.921875 44.046875 88.921875 33.015625 
L 88.921875 0 
L 79.890625 0 
L 79.890625 32.71875 
Q 79.890625 40.578125 77.09375 44.375 
Q 74.3125 48.1875 68.609375 48.1875 
Q 61.625 48.1875 57.5625 43.546875 
Q 53.515625 38.921875 53.515625 30.90625 
L 53.515625 0 
L 44.484375 0 
L 44.484375 32.71875 
Q 44.484375 40.625 41.703125 44.40625 
Q 38.921875 48.1875 33.109375 48.1875 
Q 26.21875 48.1875 22.15625 43.53125 
Q 18.109375 38.875 18.109375 30.90625 
L 18.109375 0 
L 9.078125 0 
L 9.078125 54.6875 
L 18.109375 54.6875 
L 18.109375 46.1875 
Q 21.1875 51.21875 25.484375 53.609375 
Q 29.78125 56 35.6875 56 
Q 41.65625 56 45.828125 52.96875 
Q 50 49.953125 52 44.1875 
z
" id="DejaVuSans-6d"/>
      <path d="M 56.203125 29.59375 
L 56.203125 25.203125 
L 14.890625 25.203125 
Q 15.484375 15.921875 20.484375 11.0625 
Q 25.484375 6.203125 34.421875 6.203125 
Q 39.59375 6.203125 44.453125 7.46875 
Q 49.3125 8.734375 54.109375 11.28125 
L 54.109375 2.78125 
Q 49.265625 0.734375 44.1875 -0.34375 
Q 39.109375 -1.421875 33.890625 -1.421875 
Q 20.796875 -1.421875 13.15625 6.1875 
Q 5.515625 13.8125 5.515625 26.8125 
Q 5.515625 40.234375 12.765625 48.109375 
Q 20.015625 56 32.328125 56 
Q 43.359375 56 49.78125 48.890625 
Q 56.203125 41.796875 56.203125 29.59375 
z
M 47.21875 32.234375 
Q 47.125 39.59375 43.09375 43.984375 
Q 39.0625 48.390625 32.421875 48.390625 
Q 24.90625 48.390625 20.390625 44.140625 
Q 15.875 39.890625 15.1875 32.171875 
z
" id="DejaVuSans-65"/>
      <path id="DejaVuSans-20"/>
      <path d="M 8.59375 75.984375 
L 29.296875 75.984375 
L 29.296875 69 
L 17.578125 69 
L 17.578125 -6.203125 
L 29.296875 -6.203125 
L 29.296875 -13.1875 
L 8.59375 -13.1875 
z
" id="DejaVuSans-5b"/>
      <path d="M 44.28125 53.078125 
L 44.28125 44.578125 
Q 40.484375 46.53125 36.375 47.5 
Q 32.28125 48.484375 27.875 48.484375 
Q 21.1875 48.484375 17.84375 46.4375 
Q 14.5 44.390625 14.5 40.28125 
Q 14.5 37.15625 16.890625 35.375 
Q 19.28125 33.59375 26.515625 31.984375 
L 29.59375 31.296875 
Q 39.15625 29.25 43.1875 25.515625 
Q 47.21875 21.78125 47.21875 15.09375 
Q 47.21875 7.46875 41.1875 3.015625 
Q 35.15625 -1.421875 24.609375 -1.421875 
Q 20.21875 -1.421875 15.453125 -0.5625 
Q 10.6875 0.296875 5.421875 2 
L 5.421875 11.28125 
Q 10.40625 8.6875 15.234375 7.390625 
Q 20.0625 6.109375 24.8125 6.109375 
Q 31.15625 6.109375 34.5625 8.28125 
Q 37.984375 10.453125 37.984375 14.40625 
Q 37.984375 18.0625 35.515625 20.015625 
Q 33.0625 21.96875 24.703125 23.78125 
L 21.578125 24.515625 
Q 13.234375 26.265625 9.515625 29.90625 
Q 5.8125 33.546875 5.8125 39.890625 
Q 5.8125 47.609375 11.28125 51.796875 
Q 16.75 56 26.8125 56 
Q 31.78125 56 36.171875 55.265625 
Q 40.578125 54.546875 44.28125 53.078125 
z
" id="DejaVuSans-73"/>
      <path d="M 30.421875 75.984375 
L 30.421875 -13.1875 
L 9.71875 -13.1875 
L 9.71875 -6.203125 
L 21.390625 -6.203125 
L 21.390625 69 
L 9.71875 69 
L 9.71875 75.984375 
z
" id="DejaVuSans-5d"/>
     </defs>
     <g transform="translate(100.114639 131.022129)scale(0.09375 -0.09375)">
      <use xlink:href="#DejaVuSans-74"/>
      <use x="39.208984" xlink:href="#DejaVuSans-69"/>
      <use x="66.992188" xlink:href="#DejaVuSans-6d"/>
      <use x="164.404297" xlink:href="#DejaVuSans-65"/>
      <use x="225.927734" xlink:href="#DejaVuSans-20"/>
      <use x="257.714844" xlink:href="#DejaVuSans-5b"/>
      <use x="296.728516" xlink:href="#DejaVuSans-6d"/>
      <use x="394.140625" xlink:href="#DejaVuSans-73"/>
      <use x="446.240234" xlink:href="#DejaVuSans-5d"/>
     </g>
    </g>
   </g>
   <g id="matplotlib.axis_2">
    <g id="ytick_1">
     <g id="line2d_4">
      <defs>
       <path d="M 0 0 
L -3.5 0 
" id="mb8d1267a8f" style="stroke:#000000;stroke-width:0.8;"/>
      </defs>
      <g>
       <use style="stroke:#000000;stroke-width:0.8;" x="43.04" xlink:href="#mb8d1267a8f" y="105.64"/>
      </g>
     </g>
     <g id="text_5">
      <!-- 0.2 -->
      <defs>
       <path d="M 10.6875 12.40625 
L 21 12.40625 
L 21 0 
L 10.6875 0 
z
" id="DejaVuSans-2e"/>
       <path d="M 19.1875 8.296875 
L 53.609375 8.296875 
L 53.609375 0 
L 7.328125 0 
L 7.328125 8.296875 
Q 12.9375 14.109375 22.625 23.890625 
Q 32.328125 33.6875 34.8125 36.53125 
Q 39.546875 41.84375 41.421875 45.53125 
Q 43.3125 49.21875 43.3125 52.78125 
Q 43.3125 58.59375 39.234375 62.25 
Q 35.15625 65.921875 28.609375 65.921875 
Q 23.96875 65.921875 18.8125 64.3125 
Q 13.671875 62.703125 7.8125 59.421875 
L 7.8125 69.390625 
Q 13.765625 71.78125 18.9375 73 
Q 24.125 74.21875 28.421875 74.21875 
Q 39.75 74.21875 46.484375 68.546875 
Q 53.21875 62.890625 53.21875 53.421875 
Q 53.21875 48.921875 51.53125 44.890625 
Q 49.859375 40.875 45.40625 35.40625 
Q 44.1875 33.984375 37.640625 27.21875 
Q 31.109375 20.453125 19.1875 8.296875 
z
" id="DejaVuSans-32"/>
      </defs>
      <g transform="translate(24.112656 108.489414)scale(0.075 -0.075)">
       <use xlink:href="#DejaVuSans-30"/>
       <use x="63.623047" xlink:href="#DejaVuSans-2e"/>
       <use x="95.410156" xlink:href="#DejaVuSans-32"/>
      </g>
     </g>
    </g>
    <g id="ytick_2">
     <g id="line2d_5">
      <g>
       <use style="stroke:#000000;stroke-width:0.8;" x="43.04" xlink:href="#mb8d1267a8f" y="87.248"/>
      </g>
     </g>
     <g id="text_6">
      <!-- 0.3 -->
      <defs>
       <path d="M 40.578125 39.3125 
Q 47.65625 37.796875 51.625 33 
Q 55.609375 28.21875 55.609375 21.1875 
Q 55.609375 10.40625 48.1875 4.484375 
Q 40.765625 -1.421875 27.09375 -1.421875 
Q 22.515625 -1.421875 17.65625 -0.515625 
Q 12.796875 0.390625 7.625 2.203125 
L 7.625 11.71875 
Q 11.71875 9.328125 16.59375 8.109375 
Q 21.484375 6.890625 26.8125 6.890625 
Q 36.078125 6.890625 40.9375 10.546875 
Q 45.796875 14.203125 45.796875 21.1875 
Q 45.796875 27.640625 41.28125 31.265625 
Q 36.765625 34.90625 28.71875 34.90625 
L 20.21875 34.90625 
L 20.21875 43.015625 
L 29.109375 43.015625 
Q 36.375 43.015625 40.234375 45.921875 
Q 44.09375 48.828125 44.09375 54.296875 
Q 44.09375 59.90625 40.109375 62.90625 
Q 36.140625 65.921875 28.71875 65.921875 
Q 24.65625 65.921875 20.015625 65.03125 
Q 15.375 64.15625 9.8125 62.3125 
L 9.8125 71.09375 
Q 15.4375 72.65625 20.34375 73.4375 
Q 25.25 74.21875 29.59375 74.21875 
Q 40.828125 74.21875 47.359375 69.109375 
Q 53.90625 64.015625 53.90625 55.328125 
Q 53.90625 49.265625 50.4375 45.09375 
Q 46.96875 40.921875 40.578125 39.3125 
z
" id="DejaVuSans-33"/>
      </defs>
      <g transform="translate(24.112656 90.097414)scale(0.075 -0.075)">
       <use xlink:href="#DejaVuSans-30"/>
       <use x="63.623047" xlink:href="#DejaVuSans-2e"/>
       <use x="95.410156" xlink:href="#DejaVuSans-33"/>
      </g>
     </g>
    </g>
    <g id="ytick_3">
     <g id="line2d_6">
      <g>
       <use style="stroke:#000000;stroke-width:0.8;" x="43.04" xlink:href="#mb8d1267a8f" y="68.856"/>
      </g>
     </g>
     <g id="text_7">
      <!-- 0.4 -->
      <defs>
       <path d="M 37.796875 64.3125 
L 12.890625 25.390625 
L 37.796875 25.390625 
z
M 35.203125 72.90625 
L 47.609375 72.90625 
L 47.609375 25.390625 
L 58.015625 25.390625 
L 58.015625 17.1875 
L 47.609375 17.1875 
L 47.609375 0 
L 37.796875 0 
L 37.796875 17.1875 
L 4.890625 17.1875 
L 4.890625 26.703125 
z
" id="DejaVuSans-34"/>
      </defs>
      <g transform="translate(24.112656 71.705414)scale(0.075 -0.075)">
       <use xlink:href="#DejaVuSans-30"/>
       <use x="63.623047" xlink:href="#DejaVuSans-2e"/>
       <use x="95.410156" xlink:href="#DejaVuSans-34"/>
      </g>
     </g>
    </g>
    <g id="ytick_4">
     <g id="line2d_7">
      <g>
       <use style="stroke:#000000;stroke-width:0.8;" x="43.04" xlink:href="#mb8d1267a8f" y="50.464"/>
      </g>
     </g>
     <g id="text_8">
      <!-- 0.5 -->
      <g transform="translate(24.112656 53.313414)scale(0.075 -0.075)">
       <use xlink:href="#DejaVuSans-30"/>
       <use x="63.623047" xlink:href="#DejaVuSans-2e"/>
       <use x="95.410156" xlink:href="#DejaVuSans-35"/>
      </g>
     </g>
    </g>
    <g id="ytick_5">
     <g id="line2d_8">
      <g>
       <use style="stroke:#000000;stroke-width:0.8;" x="43.04" xlink:href="#mb8d1267a8f" y="32.072"/>
      </g>
     </g>
     <g id="text_9">
      <!-- 0.6 -->
      <defs>
       <path d="M 33.015625 40.375 
Q 26.375 40.375 22.484375 35.828125 
Q 18.609375 31.296875 18.609375 23.390625 
Q 18.609375 15.53125 22.484375 10.953125 
Q 26.375 6.390625 33.015625 6.390625 
Q 39.65625 6.390625 43.53125 10.953125 
Q 47.40625 15.53125 47.40625 23.390625 
Q 47.40625 31.296875 43.53125 35.828125 
Q 39.65625 40.375 33.015625 40.375 
z
M 52.59375 71.296875 
L 52.59375 62.3125 
Q 48.875 64.0625 45.09375 64.984375 
Q 41.3125 65.921875 37.59375 65.921875 
Q 27.828125 65.921875 22.671875 59.328125 
Q 17.53125 52.734375 16.796875 39.40625 
Q 19.671875 43.65625 24.015625 45.921875 
Q 28.375 48.1875 33.59375 48.1875 
Q 44.578125 48.1875 50.953125 41.515625 
Q 57.328125 34.859375 57.328125 23.390625 
Q 57.328125 12.15625 50.6875 5.359375 
Q 44.046875 -1.421875 33.015625 -1.421875 
Q 20.359375 -1.421875 13.671875 8.265625 
Q 6.984375 17.96875 6.984375 36.375 
Q 6.984375 53.65625 15.1875 63.9375 
Q 23.390625 74.21875 37.203125 74.21875 
Q 40.921875 74.21875 44.703125 73.484375 
Q 48.484375 72.75 52.59375 71.296875 
z
" id="DejaVuSans-36"/>
      </defs>
      <g transform="translate(24.112656 34.921414)scale(0.075 -0.075)">
       <use xlink:href="#DejaVuSans-30"/>
       <use x="63.623047" xlink:href="#DejaVuSans-2e"/>
       <use x="95.410156" xlink:href="#DejaVuSans-36"/>
      </g>
     </g>
    </g>
    <g id="ytick_6">
     <g id="line2d_9">
      <g>
       <use style="stroke:#000000;stroke-width:0.8;" x="43.04" xlink:href="#mb8d1267a8f" y="13.68"/>
      </g>
     </g>
     <g id="text_10">
      <!-- 0.7 -->
      <defs>
       <path d="M 8.203125 72.90625 
L 55.078125 72.90625 
L 55.078125 68.703125 
L 28.609375 0 
L 18.3125 0 
L 43.21875 64.59375 
L 8.203125 64.59375 
z
" id="DejaVuSans-37"/>
      </defs>
      <g transform="translate(24.112656 16.529414)scale(0.075 -0.075)">
       <use xlink:href="#DejaVuSans-30"/>
       <use x="63.623047" xlink:href="#DejaVuSans-2e"/>
       <use x="95.410156" xlink:href="#DejaVuSans-37"/>
      </g>
     </g>
    </g>
    <g id="text_11">
     <!-- acc -->
     <defs>
      <path d="M 34.28125 27.484375 
Q 23.390625 27.484375 19.1875 25 
Q 14.984375 22.515625 14.984375 16.5 
Q 14.984375 11.71875 18.140625 8.90625 
Q 21.296875 6.109375 26.703125 6.109375 
Q 34.1875 6.109375 38.703125 11.40625 
Q 43.21875 16.703125 43.21875 25.484375 
L 43.21875 27.484375 
z
M 52.203125 31.203125 
L 52.203125 0 
L 43.21875 0 
L 43.21875 8.296875 
Q 40.140625 3.328125 35.546875 0.953125 
Q 30.953125 -1.421875 24.3125 -1.421875 
Q 15.921875 -1.421875 10.953125 3.296875 
Q 6 8.015625 6 15.921875 
Q 6 25.140625 12.171875 29.828125 
Q 18.359375 34.515625 30.609375 34.515625 
L 43.21875 34.515625 
L 43.21875 35.40625 
Q 43.21875 41.609375 39.140625 45 
Q 35.0625 48.390625 27.6875 48.390625 
Q 23 48.390625 18.546875 47.265625 
Q 14.109375 46.140625 10.015625 43.890625 
L 10.015625 52.203125 
Q 14.9375 54.109375 19.578125 55.046875 
Q 24.21875 56 28.609375 56 
Q 40.484375 56 46.34375 49.84375 
Q 52.203125 43.703125 52.203125 31.203125 
z
" id="DejaVuSans-61"/>
      <path d="M 48.78125 52.59375 
L 48.78125 44.1875 
Q 44.96875 46.296875 41.140625 47.34375 
Q 37.3125 48.390625 33.40625 48.390625 
Q 24.65625 48.390625 19.8125 42.84375 
Q 14.984375 37.3125 14.984375 27.296875 
Q 14.984375 17.28125 19.8125 11.734375 
Q 24.65625 6.203125 33.40625 6.203125 
Q 37.3125 6.203125 41.140625 7.25 
Q 44.96875 8.296875 48.78125 10.40625 
L 48.78125 2.09375 
Q 45.015625 0.34375 40.984375 -0.53125 
Q 36.96875 -1.421875 32.421875 -1.421875 
Q 20.0625 -1.421875 12.78125 6.34375 
Q 5.515625 14.109375 5.515625 27.296875 
Q 5.515625 40.671875 12.859375 48.328125 
Q 20.21875 56 33.015625 56 
Q 37.15625 56 41.109375 55.140625 
Q 45.0625 54.296875 48.78125 52.59375 
z
" id="DejaVuSans-63"/>
     </defs>
     <g transform="translate(18.162949 67.687344)rotate(-90)scale(0.09375 -0.09375)">
      <use xlink:href="#DejaVuSans-61"/>
      <use x="61.279297" xlink:href="#DejaVuSans-63"/>
      <use x="116.259766" xlink:href="#DejaVuSans-63"/>
     </g>
    </g>
   </g>
   <g id="line2d_10">
    <path clip-path="url(#p9b7c65473c)" d="M 51.908889 80.930348 
L 54.126111 81.428158 
L 56.343333 81.164539 
L 58.560556 81.391374 
L 60.777778 81.399957 
L 62.995 81.258339 
L 65.212222 81.279183 
L 67.429444 80.971423 
L 69.646667 81.043152 
L 71.863889 81.105072 
L 74.081111 81.129595 
L 76.298333 81.130821 
L 78.515556 81.157183 
L 80.732778 81.282861 
L 82.95 81.030278 
L 85.167222 81.460038 
L 87.384444 81.289605 
L 89.601667 81.114881 
L 91.818889 81.239947 
L 94.036111 80.764207 
L 96.253333 80.904599 
L 98.470556 80.999011 
L 100.687778 81.135725 
L 102.905 81.215424 
L 105.122222 80.964067 
L 107.339444 80.979393 
L 109.556667 80.92667 
L 111.773889 81.053574 
L 113.991111 81.246077 
L 116.208333 81.25466 
L 118.425556 80.827966 
L 120.642778 81.072579 
L 122.86 80.971423 
L 125.077222 80.865363 
L 127.294444 81.391374 
L 129.511667 81.297575 
L 131.728889 81.122238 
L 133.946111 80.981233 
L 136.163333 81.284087 
L 138.380556 80.94874 
L 140.597778 81.052961 
L 142.815 81.518892 
L 145.032222 81.084841 
L 147.249444 81.089132 
L 149.466667 81.041313 
L 151.683889 81.461264 
L 153.901111 80.881303 
L 156.118333 81.192127 
L 158.335556 81.13266 
L 160.552778 81.281022 
L 162.77 81.63047 
L 164.987222 81.245464 
L 167.204444 80.984911 
L 169.421667 81.195193 
L 171.638889 81.085454 
L 173.856111 80.885594 
L 176.073333 81.033343 
L 178.290556 81.005142 
L 180.507778 81.158409 
L 182.725 81.047444 
L 184.942222 81.314128 
L 187.159444 81.12469 
L 189.376667 81.224007 
L 191.593889 80.941996 
L 193.811111 80.812026 
" style="fill:none;stroke:#000000;stroke-linecap:square;stroke-width:0.9375;"/>
   </g>
   <g id="line2d_11">
    <path clip-path="url(#p9b7c65473c)" d="M 51.908889 67.181653 
L 54.126111 68.211517 
L 56.343333 68.517855 
L 58.560556 68.224776 
L 60.777778 67.723485 
L 62.995 66.343829 
L 65.212222 65.655508 
L 67.429444 67.124713 
L 69.646667 67.904387 
L 71.863889 67.291326 
L 74.081111 66.461305 
L 76.298333 67.820113 
L 78.515556 67.121063 
L 80.732778 65.702316 
L 82.95 64.688878 
L 85.167222 64.065 
L 87.384444 63.627768 
L 89.601667 63.859204 
L 91.818889 64.502167 
L 94.036111 64.867802 
L 96.253333 64.66722 
L 98.470556 64.685857 
L 100.687778 65.51804 
L 102.905 65.478367 
L 105.122222 64.997622 
L 107.339444 63.675638 
L 109.556667 63.45298 
L 111.773889 63.719445 
L 113.991111 63.400387 
L 116.208333 64.336585 
L 118.425556 64.474488 
L 120.642778 62.302989 
L 122.86 62.675004 
L 125.077222 61.532585 
L 127.294444 62.552886 
L 129.511667 61.586003 
L 131.728889 61.393627 
L 133.946111 63.699167 
L 136.163333 62.26176 
L 138.380556 63.025166 
L 140.597778 62.799859 
L 142.815 63.73058 
L 145.032222 63.174793 
L 147.249444 64.564057 
L 149.466667 64.398275 
L 151.683889 64.724189 
L 153.901111 65.792066 
L 156.118333 65.720362 
L 158.335556 65.873487 
L 160.552778 65.739983 
L 162.77 66.637849 
L 164.987222 65.642154 
L 167.204444 66.298034 
L 169.421667 65.583044 
L 171.638889 64.15344 
L 173.856111 62.694623 
L 176.073333 63.826875 
L 178.290556 63.933382 
L 180.507778 63.847704 
L 182.725 63.087404 
L 184.942222 62.301473 
L 187.159444 62.758146 
L 189.376667 62.65904 
L 191.593889 64.199421 
L 193.811111 65.418301 
" style="fill:none;stroke:#000000;stroke-linecap:square;stroke-width:0.333333;"/>
   </g>
   <g id="line2d_12">
    <path clip-path="url(#p9b7c65473c)" d="M 51.908889 94.679043 
L 54.126111 94.644799 
L 56.343333 93.811224 
L 58.560556 94.557972 
L 60.777778 95.076429 
L 62.995 96.172848 
L 65.212222 96.902858 
L 67.429444 94.818134 
L 69.646667 94.181918 
L 71.863889 94.918818 
L 74.081111 95.797884 
L 76.298333 94.441529 
L 78.515556 95.193302 
L 80.732778 96.863406 
L 82.95 97.371678 
L 85.167222 98.855075 
L 87.384444 98.951442 
L 89.601667 98.370558 
L 91.818889 97.977727 
L 94.036111 96.660612 
L 96.253333 97.141979 
L 98.470556 97.312166 
L 100.687778 96.753411 
L 102.905 96.952481 
L 105.122222 96.930511 
L 107.339444 98.283149 
L 109.556667 98.400359 
L 111.773889 98.387703 
L 113.991111 99.091768 
L 116.208333 98.172736 
L 118.425556 97.181444 
L 120.642778 99.84217 
L 122.86 99.267843 
L 125.077222 100.198141 
L 127.294444 100.229862 
L 129.511667 101.009147 
L 131.728889 100.850849 
L 133.946111 98.263298 
L 136.163333 100.306415 
L 138.380556 98.872314 
L 140.597778 99.306064 
L 142.815 99.307204 
L 145.032222 98.994889 
L 147.249444 97.614208 
L 149.466667 97.684351 
L 151.683889 98.198339 
L 153.901111 95.97054 
L 156.118333 96.663893 
L 158.335556 96.391833 
L 160.552778 96.822061 
L 162.77 96.623092 
L 164.987222 96.848775 
L 167.204444 95.671788 
L 169.421667 96.807342 
L 171.638889 98.017467 
L 173.856111 99.076565 
L 176.073333 98.239811 
L 178.290556 98.076902 
L 180.507778 98.469113 
L 182.725 99.007484 
L 184.942222 100.326782 
L 187.159444 99.491234 
L 189.376667 99.788973 
L 191.593889 97.684572 
L 193.811111 96.205752 
" style="fill:none;stroke:#000000;stroke-linecap:square;stroke-width:0.333333;"/>
   </g>
   <g id="line2d_13">
    <path clip-path="url(#p9b7c65473c)" d="M 51.908889 91.47816 
L 54.126111 89.632829 
L 56.343333 89.896448 
L 58.560556 89.044285 
L 60.777778 87.861067 
L 62.995 86.831115 
L 65.212222 87.315437 
L 67.429444 91.269717 
L 69.646667 85.880861 
L 71.863889 85.494629 
L 74.081111 85.476237 
L 76.298333 92.318061 
L 78.515556 91.913437 
L 80.732778 79.750195 
L 82.95 71.283744 
L 85.167222 69.389368 
L 87.384444 61.523723 
L 89.601667 56.245219 
L 91.818889 52.094757 
L 94.036111 47.699069 
L 96.253333 39.177443 
L 98.470556 35.958843 
L 100.687778 33.17552 
L 102.905 38.227189 
L 105.122222 34.493613 
L 107.339444 43.898056 
L 109.556667 45.872131 
L 111.773889 42.537048 
L 113.991111 46.69364 
L 116.208333 48.949725 
L 118.425556 43.738659 
L 120.642778 44.382379 
L 122.86 45.620773 
L 125.077222 39.70468 
L 127.294444 41.378352 
L 129.511667 43.303381 
L 131.728889 40.728501 
L 133.946111 37.896133 
L 136.163333 37.859349 
L 138.380556 44.958661 
L 140.597778 49.434048 
L 142.815 61.59116 
L 145.032222 62.909253 
L 147.249444 62.112267 
L 149.466667 67.445947 
L 151.683889 76.041141 
L 153.901111 80.939544 
L 156.118333 78.045869 
L 158.335556 78.87964 
L 160.552778 76.084056 
L 162.77 78.585368 
L 164.987222 74.808877 
L 167.204444 74.692395 
L 169.421667 72.289173 
L 171.638889 72.742843 
L 173.856111 67.550168 
L 176.073333 61.578899 
L 178.290556 55.950947 
L 180.507778 53.045011 
L 182.725 51.585912 
L 184.942222 55.88964 
L 187.159444 58.826229 
L 189.376667 57.097381 
L 191.593889 57.342608 
L 193.811111 55.877379 
" style="fill:none;stroke:#ff7f0e;stroke-linecap:square;stroke-width:0.9375;"/>
   </g>
   <g id="line2d_14">
    <path clip-path="url(#p9b7c65473c)" d="M 51.908889 77.729465 
L 54.126111 76.416188 
L 56.343333 77.249764 
L 58.560556 75.877687 
L 60.777778 74.184595 
L 62.995 71.916605 
L 65.212222 71.691762 
L 67.429444 77.423007 
L 69.646667 72.742096 
L 71.863889 71.680884 
L 74.081111 70.807948 
L 76.298333 79.007353 
L 78.515556 77.877318 
L 80.732778 64.16965 
L 82.95 54.942344 
L 85.167222 51.994331 
L 87.384444 43.861886 
L 89.601667 38.989542 
L 91.818889 35.356977 
L 94.036111 31.802664 
L 96.253333 22.940063 
L 98.470556 19.645688 
L 100.687778 17.557835 
L 102.905 22.490132 
L 105.122222 18.527169 
L 107.339444 26.594301 
L 109.556667 28.398441 
L 111.773889 25.202919 
L 113.991111 28.84795 
L 116.208333 32.03165 
L 118.425556 27.38518 
L 120.642778 25.612788 
L 122.86 27.324354 
L 125.077222 20.371902 
L 127.294444 22.539864 
L 129.511667 23.591809 
L 131.728889 20.99989 
L 133.946111 20.614068 
L 136.163333 18.837022 
L 138.380556 27.035087 
L 140.597778 31.180946 
L 142.815 43.802848 
L 145.032222 44.999206 
L 147.249444 45.587191 
L 149.466667 50.802909 
L 151.683889 59.304067 
L 153.901111 65.850307 
L 156.118333 62.574103 
L 158.335556 63.620467 
L 160.552778 60.543017 
L 162.77 63.592747 
L 164.987222 59.205567 
L 167.204444 60.005518 
L 169.421667 56.677024 
L 171.638889 55.810829 
L 173.856111 49.359197 
L 176.073333 44.37243 
L 178.290556 38.879186 
L 180.507778 35.734306 
L 182.725 33.625872 
L 184.942222 36.876986 
L 187.159444 40.459685 
L 189.376667 38.532415 
L 191.593889 40.600032 
L 193.811111 40.483653 
" style="fill:none;stroke:#ff7f0e;stroke-linecap:square;stroke-width:0.333333;"/>
   </g>
   <g id="line2d_15">
    <path clip-path="url(#p9b7c65473c)" d="M 51.908889 105.226855 
L 54.126111 102.84947 
L 56.343333 102.543132 
L 58.560556 102.210884 
L 60.777778 101.537538 
L 62.995 101.745624 
L 65.212222 102.939113 
L 67.429444 105.116428 
L 69.646667 99.019627 
L 71.863889 99.308375 
L 74.081111 100.144527 
L 76.298333 105.628769 
L 78.515556 105.949557 
L 80.732778 95.33074 
L 82.95 87.625144 
L 85.167222 86.784405 
L 87.384444 79.185559 
L 89.601667 73.500896 
L 91.818889 68.832537 
L 94.036111 63.595474 
L 96.253333 55.414822 
L 98.470556 52.271997 
L 100.687778 48.793205 
L 102.905 53.964246 
L 105.122222 50.460058 
L 107.339444 61.201811 
L 109.556667 63.34582 
L 111.773889 59.871177 
L 113.991111 64.53933 
L 116.208333 65.867801 
L 118.425556 60.092137 
L 120.642778 63.151969 
L 122.86 63.917193 
L 125.077222 59.037458 
L 127.294444 60.21684 
L 129.511667 63.014953 
L 131.728889 60.457112 
L 133.946111 55.178199 
L 136.163333 56.881677 
L 138.380556 62.882235 
L 140.597778 67.68715 
L 142.815 79.379472 
L 145.032222 80.819301 
L 147.249444 78.637342 
L 149.466667 84.088985 
L 151.683889 92.778216 
L 153.901111 96.028781 
L 156.118333 93.517635 
L 158.335556 94.138813 
L 160.552778 91.625095 
L 162.77 93.577989 
L 164.987222 90.412188 
L 167.204444 89.379271 
L 169.421667 87.901323 
L 171.638889 89.674856 
L 173.856111 85.741139 
L 176.073333 78.785367 
L 178.290556 73.022707 
L 180.507778 70.355715 
L 182.725 69.545952 
L 184.942222 74.902294 
L 187.159444 77.192774 
L 189.376667 75.662348 
L 191.593889 74.085184 
L 193.811111 71.271104 
" style="fill:none;stroke:#ff7f0e;stroke-linecap:square;stroke-width:0.333333;"/>
   </g>
   <g id="line2d_16">
    <path clip-path="url(#p9b7c65473c)" d="M 51.908889 71.467664 
L 54.126111 72.583445 
L 56.343333 71.780328 
L 58.560556 75.642648 
L 60.777778 82.196331 
L 62.995 80.191603 
L 65.212222 85.310709 
L 67.429444 90.534037 
L 69.646667 96.266211 
L 71.863889 95.125907 
L 74.081111 94.518971 
L 76.298333 92.845299 
L 78.515556 88.277952 
L 80.732778 85.359755 
L 82.95 82.815528 
L 85.167222 78.41984 
L 87.384444 71.89068 
L 89.601667 64.576795 
L 91.818889 57.918891 
L 94.036111 55.147829 
L 96.253333 52.137672 
L 98.470556 52.934659 
L 100.687778 53.584509 
L 102.905 56.790848 
L 105.122222 58.397083 
L 107.339444 64.999811 
L 109.556667 64.99368 
L 111.773889 61.22332 
L 113.991111 60.76352 
L 116.208333 59.359597 
L 118.425556 63.516189 
L 120.642778 63.767547 
L 122.86 69.855299 
L 125.077222 69.168664 
L 127.294444 66.691875 
L 129.511667 65.379912 
L 131.728889 63.234179 
L 133.946111 61.701512 
L 136.163333 61.13136 
L 138.380556 59.702915 
L 140.597778 58.679093 
L 142.815 55.270443 
L 145.032222 58.501304 
L 147.249444 60.254675 
L 149.466667 62.903123 
L 151.683889 60.322112 
L 153.901111 61.664728 
L 156.118333 60.217891 
L 158.335556 58.053765 
L 160.552778 65.1776 
L 162.77 66.581523 
L 164.987222 66.538608 
L 167.204444 69.070573 
L 169.421667 67.219112 
L 171.638889 68.095797 
L 173.856111 67.678912 
L 176.073333 68.236803 
L 178.290556 67.482731 
L 180.507778 65.796797 
L 182.725 61.505331 
L 184.942222 55.963208 
L 187.159444 53.645816 
L 189.376667 54.675768 
L 191.593889 49.91224 
L 193.811111 48.220176 
" style="fill:none;stroke:#1f77b4;stroke-linecap:square;stroke-width:0.9375;"/>
   </g>
   <g id="line2d_17">
    <path clip-path="url(#p9b7c65473c)" d="M 51.908889 54.031845 
L 54.126111 54.134583 
L 56.343333 53.313511 
L 58.560556 58.758864 
L 60.777778 66.927371 
L 62.995 63.094736 
L 65.212222 67.724409 
L 67.429444 73.780254 
L 69.646667 82.117436 
L 71.863889 79.258402 
L 74.081111 78.517339 
L 76.298333 77.412168 
L 78.515556 72.543771 
L 80.732778 71.251046 
L 82.95 67.853472 
L 85.167222 63.354109 
L 87.384444 54.834999 
L 89.601667 47.146288 
L 91.818889 39.584667 
L 94.036111 37.341325 
L 96.253333 34.561605 
L 98.470556 34.928555 
L 100.687778 36.643425 
L 102.905 40.76742 
L 105.122222 42.661482 
L 107.339444 48.1921 
L 109.556667 48.520201 
L 111.773889 42.711676 
L 113.991111 41.639967 
L 116.208333 39.741178 
L 118.425556 45.627813 
L 120.642778 45.452648 
L 122.86 52.328741 
L 125.077222 51.116896 
L 127.294444 50.168288 
L 129.511667 49.448185 
L 131.728889 45.302622 
L 133.946111 42.225849 
L 136.163333 42.28457 
L 138.380556 41.793758 
L 140.597778 41.40932 
L 142.815 38.884759 
L 145.032222 43.850705 
L 147.249444 46.145759 
L 149.466667 49.384399 
L 151.683889 46.07133 
L 153.901111 44.274618 
L 156.118333 41.523861 
L 158.335556 39.1839 
L 160.552778 47.862401 
L 162.77 48.184354 
L 164.987222 48.861954 
L 167.204444 50.858804 
L 169.421667 49.233768 
L 171.638889 51.178019 
L 173.856111 51.532621 
L 176.073333 54.540972 
L 178.290556 51.664394 
L 180.507778 50.504134 
L 182.725 45.989657 
L 184.942222 41.279665 
L 187.159444 38.021948 
L 189.376667 37.632811 
L 191.593889 31.705811 
L 193.811111 31.503742 
" style="fill:none;stroke:#1f77b4;stroke-linecap:square;stroke-width:0.333333;"/>
   </g>
   <g id="line2d_18">
    <path clip-path="url(#p9b7c65473c)" d="M 51.908889 88.903483 
L 54.126111 91.032307 
L 56.343333 90.247145 
L 58.560556 92.526432 
L 60.777778 97.46529 
L 62.995 97.288469 
L 65.212222 102.897009 
L 67.429444 107.28782 
L 69.646667 110.414986 
L 71.863889 110.993412 
L 74.081111 110.520603 
L 76.298333 108.27843 
L 78.515556 104.012133 
L 80.732778 99.468463 
L 82.95 97.777584 
L 85.167222 93.485571 
L 87.384444 88.946361 
L 89.601667 82.007301 
L 91.818889 76.253114 
L 94.036111 72.954334 
L 96.253333 69.713739 
L 98.470556 70.940763 
L 100.687778 70.525594 
L 102.905 72.814276 
L 105.122222 74.132683 
L 107.339444 81.807522 
L 109.556667 81.467159 
L 111.773889 79.734964 
L 113.991111 79.887073 
L 116.208333 78.978017 
L 118.425556 81.404566 
L 120.642778 82.082445 
L 122.86 87.381856 
L 125.077222 87.220432 
L 127.294444 83.215461 
L 129.511667 81.311639 
L 131.728889 81.165735 
L 133.946111 81.177175 
L 136.163333 79.97815 
L 138.380556 77.612072 
L 140.597778 75.948867 
L 142.815 71.656126 
L 145.032222 73.151903 
L 147.249444 74.36359 
L 149.466667 76.421846 
L 151.683889 74.572894 
L 153.901111 79.054838 
L 156.118333 78.91192 
L 158.335556 76.923631 
L 160.552778 82.492799 
L 162.77 84.978691 
L 164.987222 84.215262 
L 167.204444 87.282343 
L 169.421667 85.204456 
L 171.638889 85.013576 
L 173.856111 83.825203 
L 176.073333 81.932634 
L 178.290556 83.301067 
L 180.507778 81.089461 
L 182.725 77.021004 
L 184.942222 70.646751 
L 187.159444 69.269684 
L 189.376667 71.718725 
L 191.593889 68.118669 
L 193.811111 64.93661 
" style="fill:none;stroke:#1f77b4;stroke-linecap:square;stroke-width:0.333333;"/>
   </g>
   <g id="patch_3">
    <path d="M 43.04 105.64 
L 43.04 13.68 
" style="fill:none;stroke:#000000;stroke-linecap:square;stroke-linejoin:miter;stroke-width:0.8;"/>
   </g>
   <g id="patch_4">
    <path d="M 202.68 105.64 
L 202.68 13.68 
" style="fill:none;stroke:#000000;stroke-linecap:square;stroke-linejoin:miter;stroke-width:0.8;"/>
   </g>
   <g id="patch_5">
    <path d="M 43.04 105.64 
L 202.68 105.64 
" style="fill:none;stroke:#000000;stroke-linecap:square;stroke-linejoin:miter;stroke-width:0.8;"/>
   </g>
   <g id="patch_6">
    <path d="M 43.04 13.68 
L 202.68 13.68 
" style="fill:none;stroke:#000000;stroke-linecap:square;stroke-linejoin:miter;stroke-width:0.8;"/>
   </g>
  </g>
 </g>
 <defs>
  <clipPath id="p9b7c65473c">
   <rect height="91.96" width="159.64" x="43.04" y="13.68"/>
  </clipPath>
 </defs>
</svg>
