<?xml version="1.0" encoding="utf-8" standalone="no"?>
<!DOCTYPE svg PUBLIC "-//W3C//DTD SVG 1.1//EN"
  "http://www.w3.org/Graphics/SVG/1.1/DTD/svg11.dtd">
<!-- Created with matplotlib (http://matplotlib.org/) -->
<svg height="144pt" version="1.1" viewBox="0 0 216 144" width="216pt" xmlns="http://www.w3.org/2000/svg" xmlns:xlink="http://www.w3.org/1999/xlink">
 <defs>
  <style type="text/css">
*{stroke-linecap:butt;stroke-linejoin:round;}
  </style>
 </defs>
 <g id="figure_1">
  <g id="patch_1">
   <path d="M 0 144 
L 216 144 
L 216 0 
L 0 0 
z
" style="fill:#ffffff;"/>
  </g>
  <g id="axes_1">
   <g id="patch_2">
    <path d="M 43.04 105.64 
L 202.68 105.64 
L 202.68 13.68 
L 43.04 13.68 
z
" style="fill:#ffffff;"/>
   </g>
   <g id="PolyCollection_1">
    <path clip-path="url(#pd69f0cc480)" d="M 85.167222 101.042 
L 85.167222 105.64 
L 87.384444 105.64 
L 89.601667 105.64 
L 91.818889 105.64 
L 94.036111 105.64 
L 96.253333 105.64 
L 98.470556 105.64 
L 100.687778 105.64 
L 102.905 105.64 
L 105.122222 105.64 
L 107.339444 105.64 
L 109.556667 105.64 
L 111.773889 105.64 
L 113.991111 105.64 
L 116.208333 105.64 
L 118.425556 105.64 
L 120.642778 105.64 
L 122.86 105.64 
L 125.077222 105.64 
L 127.294444 105.64 
L 129.511667 105.64 
L 131.728889 105.64 
L 133.946111 105.64 
L 136.163333 105.64 
L 138.380556 105.64 
L 140.597778 105.64 
L 142.815 105.64 
L 145.032222 105.64 
L 147.249444 105.64 
L 149.466667 105.64 
L 151.683889 105.64 
L 153.901111 105.64 
L 156.118333 105.64 
L 158.335556 105.64 
L 160.552778 105.64 
L 162.77 105.64 
L 164.987222 105.64 
L 167.204444 105.64 
L 169.421667 105.64 
L 171.638889 105.64 
L 173.856111 105.64 
L 176.073333 105.64 
L 178.290556 105.64 
L 180.507778 105.64 
L 182.725 105.64 
L 184.942222 105.64 
L 187.159444 105.64 
L 189.376667 105.64 
L 191.593889 105.64 
L 193.811111 105.64 
L 193.811111 101.042 
L 193.811111 101.042 
L 191.593889 101.042 
L 189.376667 101.042 
L 187.159444 101.042 
L 184.942222 101.042 
L 182.725 101.042 
L 180.507778 101.042 
L 178.290556 101.042 
L 176.073333 101.042 
L 173.856111 101.042 
L 171.638889 101.042 
L 169.421667 101.042 
L 167.204444 101.042 
L 164.987222 101.042 
L 162.77 101.042 
L 160.552778 101.042 
L 158.335556 101.042 
L 156.118333 101.042 
L 153.901111 101.042 
L 151.683889 101.042 
L 149.466667 101.042 
L 147.249444 101.042 
L 145.032222 101.042 
L 142.815 101.042 
L 140.597778 101.042 
L 138.380556 101.042 
L 136.163333 101.042 
L 133.946111 101.042 
L 131.728889 101.042 
L 129.511667 101.042 
L 127.294444 101.042 
L 125.077222 101.042 
L 122.86 101.042 
L 120.642778 101.042 
L 118.425556 101.042 
L 116.208333 101.042 
L 113.991111 101.042 
L 111.773889 101.042 
L 109.556667 101.042 
L 107.339444 101.042 
L 105.122222 101.042 
L 102.905 101.042 
L 100.687778 101.042 
L 98.470556 101.042 
L 96.253333 101.042 
L 94.036111 101.042 
L 91.818889 101.042 
L 89.601667 101.042 
L 87.384444 101.042 
L 85.167222 101.042 
z
" style="fill-opacity:0.2;"/>
   </g>
   <g id="matplotlib.axis_1">
    <g id="xtick_1">
     <g id="line2d_1">
      <defs>
       <path d="M 0 0 
L 0 3.5 
" id="m1c3fd7edf3" style="stroke:#000000;stroke-width:0.8;"/>
      </defs>
      <g>
       <use style="stroke:#000000;stroke-width:0.8;" x="78.515556" xlink:href="#m1c3fd7edf3" y="105.64"/>
      </g>
     </g>
     <g id="text_1">
      <!-- 0 -->
      <defs>
       <path d="M 31.78125 66.40625 
Q 24.171875 66.40625 20.328125 58.90625 
Q 16.5 51.421875 16.5 36.375 
Q 16.5 21.390625 20.328125 13.890625 
Q 24.171875 6.390625 31.78125 6.390625 
Q 39.453125 6.390625 43.28125 13.890625 
Q 47.125 21.390625 47.125 36.375 
Q 47.125 51.421875 43.28125 58.90625 
Q 39.453125 66.40625 31.78125 66.40625 
z
M 31.78125 74.21875 
Q 44.046875 74.21875 50.515625 64.515625 
Q 56.984375 54.828125 56.984375 36.375 
Q 56.984375 17.96875 50.515625 8.265625 
Q 44.046875 -1.421875 31.78125 -1.421875 
Q 19.53125 -1.421875 13.0625 8.265625 
Q 6.59375 17.96875 6.59375 36.375 
Q 6.59375 54.828125 13.0625 64.515625 
Q 19.53125 74.21875 31.78125 74.21875 
z
" id="DejaVuSans-30"/>
      </defs>
      <g transform="translate(76.129618 118.338828)scale(0.075 -0.075)">
       <use xlink:href="#DejaVuSans-30"/>
      </g>
     </g>
    </g>
    <g id="xtick_2">
     <g id="line2d_2">
      <g>
       <use style="stroke:#000000;stroke-width:0.8;" x="122.86" xlink:href="#m1c3fd7edf3" y="105.64"/>
      </g>
     </g>
     <g id="text_2">
      <!-- 500 -->
      <defs>
       <path d="M 10.796875 72.90625 
L 49.515625 72.90625 
L 49.515625 64.59375 
L 19.828125 64.59375 
L 19.828125 46.734375 
Q 21.96875 47.46875 24.109375 47.828125 
Q 26.265625 48.1875 28.421875 48.1875 
Q 40.625 48.1875 47.75 41.5 
Q 54.890625 34.8125 54.890625 23.390625 
Q 54.890625 11.625 47.5625 5.09375 
Q 40.234375 -1.421875 26.90625 -1.421875 
Q 22.3125 -1.421875 17.546875 -0.640625 
Q 12.796875 0.140625 7.71875 1.703125 
L 7.71875 11.625 
Q 12.109375 9.234375 16.796875 8.0625 
Q 21.484375 6.890625 26.703125 6.890625 
Q 35.15625 6.890625 40.078125 11.328125 
Q 45.015625 15.765625 45.015625 23.390625 
Q 45.015625 31 40.078125 35.4375 
Q 35.15625 39.890625 26.703125 39.890625 
Q 22.75 39.890625 18.8125 39.015625 
Q 14.890625 38.140625 10.796875 36.28125 
z
" id="DejaVuSans-35"/>
      </defs>
      <g transform="translate(115.702187 118.338828)scale(0.075 -0.075)">
       <use xlink:href="#DejaVuSans-35"/>
       <use x="63.623047" xlink:href="#DejaVuSans-30"/>
       <use x="127.246094" xlink:href="#DejaVuSans-30"/>
      </g>
     </g>
    </g>
    <g id="xtick_3">
     <g id="line2d_3">
      <g>
       <use style="stroke:#000000;stroke-width:0.8;" x="167.204444" xlink:href="#m1c3fd7edf3" y="105.64"/>
      </g>
     </g>
     <g id="text_3">
      <!-- 1000 -->
      <defs>
       <path d="M 12.40625 8.296875 
L 28.515625 8.296875 
L 28.515625 63.921875 
L 10.984375 60.40625 
L 10.984375 69.390625 
L 28.421875 72.90625 
L 38.28125 72.90625 
L 38.28125 8.296875 
L 54.390625 8.296875 
L 54.390625 0 
L 12.40625 0 
z
" id="DejaVuSans-31"/>
      </defs>
      <g transform="translate(157.660694 118.338828)scale(0.075 -0.075)">
       <use xlink:href="#DejaVuSans-31"/>
       <use x="63.623047" xlink:href="#DejaVuSans-30"/>
       <use x="127.246094" xlink:href="#DejaVuSans-30"/>
       <use x="190.869141" xlink:href="#DejaVuSans-30"/>
      </g>
     </g>
    </g>
    <g id="text_4">
     <!-- time [ms] -->
     <defs>
      <path d="M 18.3125 70.21875 
L 18.3125 54.6875 
L 36.8125 54.6875 
L 36.8125 47.703125 
L 18.3125 47.703125 
L 18.3125 18.015625 
Q 18.3125 11.328125 20.140625 9.421875 
Q 21.96875 7.515625 27.59375 7.515625 
L 36.8125 7.515625 
L 36.8125 0 
L 27.59375 0 
Q 17.1875 0 13.234375 3.875 
Q 9.28125 7.765625 9.28125 18.015625 
L 9.28125 47.703125 
L 2.6875 47.703125 
L 2.6875 54.6875 
L 9.28125 54.6875 
L 9.28125 70.21875 
z
" id="DejaVuSans-74"/>
      <path d="M 9.421875 54.6875 
L 18.40625 54.6875 
L 18.40625 0 
L 9.421875 0 
z
M 9.421875 75.984375 
L 18.40625 75.984375 
L 18.40625 64.59375 
L 9.421875 64.59375 
z
" id="DejaVuSans-69"/>
      <path d="M 52 44.1875 
Q 55.375 50.25 60.0625 53.125 
Q 64.75 56 71.09375 56 
Q 79.640625 56 84.28125 50.015625 
Q 88.921875 44.046875 88.921875 33.015625 
L 88.921875 0 
L 79.890625 0 
L 79.890625 32.71875 
Q 79.890625 40.578125 77.09375 44.375 
Q 74.3125 48.1875 68.609375 48.1875 
Q 61.625 48.1875 57.5625 43.546875 
Q 53.515625 38.921875 53.515625 30.90625 
L 53.515625 0 
L 44.484375 0 
L 44.484375 32.71875 
Q 44.484375 40.625 41.703125 44.40625 
Q 38.921875 48.1875 33.109375 48.1875 
Q 26.21875 48.1875 22.15625 43.53125 
Q 18.109375 38.875 18.109375 30.90625 
L 18.109375 0 
L 9.078125 0 
L 9.078125 54.6875 
L 18.109375 54.6875 
L 18.109375 46.1875 
Q 21.1875 51.21875 25.484375 53.609375 
Q 29.78125 56 35.6875 56 
Q 41.65625 56 45.828125 52.96875 
Q 50 49.953125 52 44.1875 
z
" id="DejaVuSans-6d"/>
      <path d="M 56.203125 29.59375 
L 56.203125 25.203125 
L 14.890625 25.203125 
Q 15.484375 15.921875 20.484375 11.0625 
Q 25.484375 6.203125 34.421875 6.203125 
Q 39.59375 6.203125 44.453125 7.46875 
Q 49.3125 8.734375 54.109375 11.28125 
L 54.109375 2.78125 
Q 49.265625 0.734375 44.1875 -0.34375 
Q 39.109375 -1.421875 33.890625 -1.421875 
Q 20.796875 -1.421875 13.15625 6.1875 
Q 5.515625 13.8125 5.515625 26.8125 
Q 5.515625 40.234375 12.765625 48.109375 
Q 20.015625 56 32.328125 56 
Q 43.359375 56 49.78125 48.890625 
Q 56.203125 41.796875 56.203125 29.59375 
z
M 47.21875 32.234375 
Q 47.125 39.59375 43.09375 43.984375 
Q 39.0625 48.390625 32.421875 48.390625 
Q 24.90625 48.390625 20.390625 44.140625 
Q 15.875 39.890625 15.1875 32.171875 
z
" id="DejaVuSans-65"/>
      <path id="DejaVuSans-20"/>
      <path d="M 8.59375 75.984375 
L 29.296875 75.984375 
L 29.296875 69 
L 17.578125 69 
L 17.578125 -6.203125 
L 29.296875 -6.203125 
L 29.296875 -13.1875 
L 8.59375 -13.1875 
z
" id="DejaVuSans-5b"/>
      <path d="M 44.28125 53.078125 
L 44.28125 44.578125 
Q 40.484375 46.53125 36.375 47.5 
Q 32.28125 48.484375 27.875 48.484375 
Q 21.1875 48.484375 17.84375 46.4375 
Q 14.5 44.390625 14.5 40.28125 
Q 14.5 37.15625 16.890625 35.375 
Q 19.28125 33.59375 26.515625 31.984375 
L 29.59375 31.296875 
Q 39.15625 29.25 43.1875 25.515625 
Q 47.21875 21.78125 47.21875 15.09375 
Q 47.21875 7.46875 41.1875 3.015625 
Q 35.15625 -1.421875 24.609375 -1.421875 
Q 20.21875 -1.421875 15.453125 -0.5625 
Q 10.6875 0.296875 5.421875 2 
L 5.421875 11.28125 
Q 10.40625 8.6875 15.234375 7.390625 
Q 20.0625 6.109375 24.8125 6.109375 
Q 31.15625 6.109375 34.5625 8.28125 
Q 37.984375 10.453125 37.984375 14.40625 
Q 37.984375 18.0625 35.515625 20.015625 
Q 33.0625 21.96875 24.703125 23.78125 
L 21.578125 24.515625 
Q 13.234375 26.265625 9.515625 29.90625 
Q 5.8125 33.546875 5.8125 39.890625 
Q 5.8125 47.609375 11.28125 51.796875 
Q 16.75 56 26.8125 56 
Q 31.78125 56 36.171875 55.265625 
Q 40.578125 54.546875 44.28125 53.078125 
z
" id="DejaVuSans-73"/>
      <path d="M 30.421875 75.984375 
L 30.421875 -13.1875 
L 9.71875 -13.1875 
L 9.71875 -6.203125 
L 21.390625 -6.203125 
L 21.390625 69 
L 9.71875 69 
L 9.71875 75.984375 
z
" id="DejaVuSans-5d"/>
     </defs>
     <g transform="translate(100.114639 131.022129)scale(0.09375 -0.09375)">
      <use xlink:href="#DejaVuSans-74"/>
      <use x="39.208984" xlink:href="#DejaVuSans-69"/>
      <use x="66.992188" xlink:href="#DejaVuSans-6d"/>
      <use x="164.404297" xlink:href="#DejaVuSans-65"/>
      <use x="225.927734" xlink:href="#DejaVuSans-20"/>
      <use x="257.714844" xlink:href="#DejaVuSans-5b"/>
      <use x="296.728516" xlink:href="#DejaVuSans-6d"/>
      <use x="394.140625" xlink:href="#DejaVuSans-73"/>
      <use x="446.240234" xlink:href="#DejaVuSans-5d"/>
     </g>
    </g>
   </g>
   <g id="matplotlib.axis_2">
    <g id="ytick_1">
     <g id="line2d_4">
      <defs>
       <path d="M 0 0 
L -3.5 0 
" id="m867c6662ad" style="stroke:#000000;stroke-width:0.8;"/>
      </defs>
      <g>
       <use style="stroke:#000000;stroke-width:0.8;" x="43.04" xlink:href="#m867c6662ad" y="105.64"/>
      </g>
     </g>
     <g id="text_5">
      <!-- 0.2 -->
      <defs>
       <path d="M 10.6875 12.40625 
L 21 12.40625 
L 21 0 
L 10.6875 0 
z
" id="DejaVuSans-2e"/>
       <path d="M 19.1875 8.296875 
L 53.609375 8.296875 
L 53.609375 0 
L 7.328125 0 
L 7.328125 8.296875 
Q 12.9375 14.109375 22.625 23.890625 
Q 32.328125 33.6875 34.8125 36.53125 
Q 39.546875 41.84375 41.421875 45.53125 
Q 43.3125 49.21875 43.3125 52.78125 
Q 43.3125 58.59375 39.234375 62.25 
Q 35.15625 65.921875 28.609375 65.921875 
Q 23.96875 65.921875 18.8125 64.3125 
Q 13.671875 62.703125 7.8125 59.421875 
L 7.8125 69.390625 
Q 13.765625 71.78125 18.9375 73 
Q 24.125 74.21875 28.421875 74.21875 
Q 39.75 74.21875 46.484375 68.546875 
Q 53.21875 62.890625 53.21875 53.421875 
Q 53.21875 48.921875 51.53125 44.890625 
Q 49.859375 40.875 45.40625 35.40625 
Q 44.1875 33.984375 37.640625 27.21875 
Q 31.109375 20.453125 19.1875 8.296875 
z
" id="DejaVuSans-32"/>
      </defs>
      <g transform="translate(24.112656 108.489414)scale(0.075 -0.075)">
       <use xlink:href="#DejaVuSans-30"/>
       <use x="63.623047" xlink:href="#DejaVuSans-2e"/>
       <use x="95.410156" xlink:href="#DejaVuSans-32"/>
      </g>
     </g>
    </g>
    <g id="ytick_2">
     <g id="line2d_5">
      <g>
       <use style="stroke:#000000;stroke-width:0.8;" x="43.04" xlink:href="#m867c6662ad" y="87.248"/>
      </g>
     </g>
     <g id="text_6">
      <!-- 0.3 -->
      <defs>
       <path d="M 40.578125 39.3125 
Q 47.65625 37.796875 51.625 33 
Q 55.609375 28.21875 55.609375 21.1875 
Q 55.609375 10.40625 48.1875 4.484375 
Q 40.765625 -1.421875 27.09375 -1.421875 
Q 22.515625 -1.421875 17.65625 -0.515625 
Q 12.796875 0.390625 7.625 2.203125 
L 7.625 11.71875 
Q 11.71875 9.328125 16.59375 8.109375 
Q 21.484375 6.890625 26.8125 6.890625 
Q 36.078125 6.890625 40.9375 10.546875 
Q 45.796875 14.203125 45.796875 21.1875 
Q 45.796875 27.640625 41.28125 31.265625 
Q 36.765625 34.90625 28.71875 34.90625 
L 20.21875 34.90625 
L 20.21875 43.015625 
L 29.109375 43.015625 
Q 36.375 43.015625 40.234375 45.921875 
Q 44.09375 48.828125 44.09375 54.296875 
Q 44.09375 59.90625 40.109375 62.90625 
Q 36.140625 65.921875 28.71875 65.921875 
Q 24.65625 65.921875 20.015625 65.03125 
Q 15.375 64.15625 9.8125 62.3125 
L 9.8125 71.09375 
Q 15.4375 72.65625 20.34375 73.4375 
Q 25.25 74.21875 29.59375 74.21875 
Q 40.828125 74.21875 47.359375 69.109375 
Q 53.90625 64.015625 53.90625 55.328125 
Q 53.90625 49.265625 50.4375 45.09375 
Q 46.96875 40.921875 40.578125 39.3125 
z
" id="DejaVuSans-33"/>
      </defs>
      <g transform="translate(24.112656 90.097414)scale(0.075 -0.075)">
       <use xlink:href="#DejaVuSans-30"/>
       <use x="63.623047" xlink:href="#DejaVuSans-2e"/>
       <use x="95.410156" xlink:href="#DejaVuSans-33"/>
      </g>
     </g>
    </g>
    <g id="ytick_3">
     <g id="line2d_6">
      <g>
       <use style="stroke:#000000;stroke-width:0.8;" x="43.04" xlink:href="#m867c6662ad" y="68.856"/>
      </g>
     </g>
     <g id="text_7">
      <!-- 0.4 -->
      <defs>
       <path d="M 37.796875 64.3125 
L 12.890625 25.390625 
L 37.796875 25.390625 
z
M 35.203125 72.90625 
L 47.609375 72.90625 
L 47.609375 25.390625 
L 58.015625 25.390625 
L 58.015625 17.1875 
L 47.609375 17.1875 
L 47.609375 0 
L 37.796875 0 
L 37.796875 17.1875 
L 4.890625 17.1875 
L 4.890625 26.703125 
z
" id="DejaVuSans-34"/>
      </defs>
      <g transform="translate(24.112656 71.705414)scale(0.075 -0.075)">
       <use xlink:href="#DejaVuSans-30"/>
       <use x="63.623047" xlink:href="#DejaVuSans-2e"/>
       <use x="95.410156" xlink:href="#DejaVuSans-34"/>
      </g>
     </g>
    </g>
    <g id="ytick_4">
     <g id="line2d_7">
      <g>
       <use style="stroke:#000000;stroke-width:0.8;" x="43.04" xlink:href="#m867c6662ad" y="50.464"/>
      </g>
     </g>
     <g id="text_8">
      <!-- 0.5 -->
      <g transform="translate(24.112656 53.313414)scale(0.075 -0.075)">
       <use xlink:href="#DejaVuSans-30"/>
       <use x="63.623047" xlink:href="#DejaVuSans-2e"/>
       <use x="95.410156" xlink:href="#DejaVuSans-35"/>
      </g>
     </g>
    </g>
    <g id="ytick_5">
     <g id="line2d_8">
      <g>
       <use style="stroke:#000000;stroke-width:0.8;" x="43.04" xlink:href="#m867c6662ad" y="32.072"/>
      </g>
     </g>
     <g id="text_9">
      <!-- 0.6 -->
      <defs>
       <path d="M 33.015625 40.375 
Q 26.375 40.375 22.484375 35.828125 
Q 18.609375 31.296875 18.609375 23.390625 
Q 18.609375 15.53125 22.484375 10.953125 
Q 26.375 6.390625 33.015625 6.390625 
Q 39.65625 6.390625 43.53125 10.953125 
Q 47.40625 15.53125 47.40625 23.390625 
Q 47.40625 31.296875 43.53125 35.828125 
Q 39.65625 40.375 33.015625 40.375 
z
M 52.59375 71.296875 
L 52.59375 62.3125 
Q 48.875 64.0625 45.09375 64.984375 
Q 41.3125 65.921875 37.59375 65.921875 
Q 27.828125 65.921875 22.671875 59.328125 
Q 17.53125 52.734375 16.796875 39.40625 
Q 19.671875 43.65625 24.015625 45.921875 
Q 28.375 48.1875 33.59375 48.1875 
Q 44.578125 48.1875 50.953125 41.515625 
Q 57.328125 34.859375 57.328125 23.390625 
Q 57.328125 12.15625 50.6875 5.359375 
Q 44.046875 -1.421875 33.015625 -1.421875 
Q 20.359375 -1.421875 13.671875 8.265625 
Q 6.984375 17.96875 6.984375 36.375 
Q 6.984375 53.65625 15.1875 63.9375 
Q 23.390625 74.21875 37.203125 74.21875 
Q 40.921875 74.21875 44.703125 73.484375 
Q 48.484375 72.75 52.59375 71.296875 
z
" id="DejaVuSans-36"/>
      </defs>
      <g transform="translate(24.112656 34.921414)scale(0.075 -0.075)">
       <use xlink:href="#DejaVuSans-30"/>
       <use x="63.623047" xlink:href="#DejaVuSans-2e"/>
       <use x="95.410156" xlink:href="#DejaVuSans-36"/>
      </g>
     </g>
    </g>
    <g id="ytick_6">
     <g id="line2d_9">
      <g>
       <use style="stroke:#000000;stroke-width:0.8;" x="43.04" xlink:href="#m867c6662ad" y="13.68"/>
      </g>
     </g>
     <g id="text_10">
      <!-- 0.7 -->
      <defs>
       <path d="M 8.203125 72.90625 
L 55.078125 72.90625 
L 55.078125 68.703125 
L 28.609375 0 
L 18.3125 0 
L 43.21875 64.59375 
L 8.203125 64.59375 
z
" id="DejaVuSans-37"/>
      </defs>
      <g transform="translate(24.112656 16.529414)scale(0.075 -0.075)">
       <use xlink:href="#DejaVuSans-30"/>
       <use x="63.623047" xlink:href="#DejaVuSans-2e"/>
       <use x="95.410156" xlink:href="#DejaVuSans-37"/>
      </g>
     </g>
    </g>
    <g id="text_11">
     <!-- acc -->
     <defs>
      <path d="M 34.28125 27.484375 
Q 23.390625 27.484375 19.1875 25 
Q 14.984375 22.515625 14.984375 16.5 
Q 14.984375 11.71875 18.140625 8.90625 
Q 21.296875 6.109375 26.703125 6.109375 
Q 34.1875 6.109375 38.703125 11.40625 
Q 43.21875 16.703125 43.21875 25.484375 
L 43.21875 27.484375 
z
M 52.203125 31.203125 
L 52.203125 0 
L 43.21875 0 
L 43.21875 8.296875 
Q 40.140625 3.328125 35.546875 0.953125 
Q 30.953125 -1.421875 24.3125 -1.421875 
Q 15.921875 -1.421875 10.953125 3.296875 
Q 6 8.015625 6 15.921875 
Q 6 25.140625 12.171875 29.828125 
Q 18.359375 34.515625 30.609375 34.515625 
L 43.21875 34.515625 
L 43.21875 35.40625 
Q 43.21875 41.609375 39.140625 45 
Q 35.0625 48.390625 27.6875 48.390625 
Q 23 48.390625 18.546875 47.265625 
Q 14.109375 46.140625 10.015625 43.890625 
L 10.015625 52.203125 
Q 14.9375 54.109375 19.578125 55.046875 
Q 24.21875 56 28.609375 56 
Q 40.484375 56 46.34375 49.84375 
Q 52.203125 43.703125 52.203125 31.203125 
z
" id="DejaVuSans-61"/>
      <path d="M 48.78125 52.59375 
L 48.78125 44.1875 
Q 44.96875 46.296875 41.140625 47.34375 
Q 37.3125 48.390625 33.40625 48.390625 
Q 24.65625 48.390625 19.8125 42.84375 
Q 14.984375 37.3125 14.984375 27.296875 
Q 14.984375 17.28125 19.8125 11.734375 
Q 24.65625 6.203125 33.40625 6.203125 
Q 37.3125 6.203125 41.140625 7.25 
Q 44.96875 8.296875 48.78125 10.40625 
L 48.78125 2.09375 
Q 45.015625 0.34375 40.984375 -0.53125 
Q 36.96875 -1.421875 32.421875 -1.421875 
Q 20.0625 -1.421875 12.78125 6.34375 
Q 5.515625 14.109375 5.515625 27.296875 
Q 5.515625 40.671875 12.859375 48.328125 
Q 20.21875 56 33.015625 56 
Q 37.15625 56 41.109375 55.140625 
Q 45.0625 54.296875 48.78125 52.59375 
z
" id="DejaVuSans-63"/>
     </defs>
     <g transform="translate(18.162949 67.687344)rotate(-90)scale(0.09375 -0.09375)">
      <use xlink:href="#DejaVuSans-61"/>
      <use x="61.279297" xlink:href="#DejaVuSans-63"/>
      <use x="116.259766" xlink:href="#DejaVuSans-63"/>
     </g>
    </g>
   </g>
   <g id="line2d_10">
    <path clip-path="url(#pd69f0cc480)" d="M 51.908889 80.930348 
L 54.126111 81.428158 
L 56.343333 81.164539 
L 58.560556 81.391374 
L 60.777778 81.399957 
L 62.995 81.258339 
L 65.212222 81.279183 
L 67.429444 80.971423 
L 69.646667 81.043152 
L 71.863889 81.105072 
L 74.081111 81.129595 
L 76.298333 81.130821 
L 78.515556 81.157183 
L 80.732778 81.282861 
L 82.95 81.030278 
L 85.167222 81.460038 
L 87.384444 81.289605 
L 89.601667 81.114881 
L 91.818889 81.239947 
L 94.036111 80.764207 
L 96.253333 80.904599 
L 98.470556 80.999011 
L 100.687778 81.135725 
L 102.905 81.215424 
L 105.122222 80.964067 
L 107.339444 80.979393 
L 109.556667 80.92667 
L 111.773889 81.053574 
L 113.991111 81.246077 
L 116.208333 81.25466 
L 118.425556 80.827966 
L 120.642778 81.072579 
L 122.86 80.971423 
L 125.077222 80.865363 
L 127.294444 81.391374 
L 129.511667 81.297575 
L 131.728889 81.122238 
L 133.946111 80.981233 
L 136.163333 81.284087 
L 138.380556 80.94874 
L 140.597778 81.052961 
L 142.815 81.518892 
L 145.032222 81.084841 
L 147.249444 81.089132 
L 149.466667 81.041313 
L 151.683889 81.461264 
L 153.901111 80.881303 
L 156.118333 81.192127 
L 158.335556 81.13266 
L 160.552778 81.281022 
L 162.77 81.63047 
L 164.987222 81.245464 
L 167.204444 80.984911 
L 169.421667 81.195193 
L 171.638889 81.085454 
L 173.856111 80.885594 
L 176.073333 81.033343 
L 178.290556 81.005142 
L 180.507778 81.158409 
L 182.725 81.047444 
L 184.942222 81.314128 
L 187.159444 81.12469 
L 189.376667 81.224007 
L 191.593889 80.941996 
L 193.811111 80.812026 
" style="fill:none;stroke:#000000;stroke-linecap:square;stroke-width:0.9375;"/>
   </g>
   <g id="line2d_11">
    <path clip-path="url(#pd69f0cc480)" d="M 51.908889 76.095666 
L 54.126111 76.45453 
L 56.343333 76.181734 
L 58.560556 76.471569 
L 60.777778 76.375784 
L 62.995 76.305568 
L 65.212222 76.412642 
L 67.429444 75.849643 
L 69.646667 76.074575 
L 71.863889 75.959269 
L 74.081111 76.365013 
L 76.298333 76.117093 
L 78.515556 76.187984 
L 80.732778 76.104966 
L 82.95 75.920308 
L 85.167222 76.614463 
L 87.384444 76.14839 
L 89.601667 76.158284 
L 91.818889 76.180159 
L 94.036111 75.798888 
L 96.253333 75.944947 
L 98.470556 75.983251 
L 100.687778 76.148772 
L 102.905 76.214799 
L 105.122222 75.964753 
L 107.339444 75.887677 
L 109.556667 75.894356 
L 111.773889 75.976909 
L 113.991111 76.333049 
L 116.208333 76.314247 
L 118.425556 75.960926 
L 120.642778 76.088771 
L 122.86 76.101754 
L 125.077222 75.797334 
L 127.294444 76.438297 
L 129.511667 76.52724 
L 131.728889 76.262667 
L 133.946111 76.10773 
L 136.163333 76.38216 
L 138.380556 76.059351 
L 140.597778 75.930644 
L 142.815 76.509572 
L 145.032222 76.159042 
L 147.249444 76.147272 
L 149.466667 76.073406 
L 151.683889 76.331677 
L 153.901111 75.914601 
L 156.118333 76.538507 
L 158.335556 76.229339 
L 160.552778 76.15087 
L 162.77 76.59412 
L 164.987222 76.234893 
L 167.204444 76.135195 
L 169.421667 76.115209 
L 171.638889 76.243186 
L 173.856111 75.997676 
L 176.073333 76.024689 
L 178.290556 75.853065 
L 180.507778 75.963794 
L 182.725 75.87311 
L 184.942222 76.53048 
L 187.159444 76.255387 
L 189.376667 76.244044 
L 191.593889 75.997462 
L 193.811111 75.964533 
" style="fill:none;stroke:#000000;stroke-linecap:square;stroke-width:0.333333;"/>
   </g>
   <g id="line2d_12">
    <path clip-path="url(#pd69f0cc480)" d="M 51.908889 85.76503 
L 54.126111 86.401786 
L 56.343333 86.147345 
L 58.560556 86.311179 
L 60.777778 86.42413 
L 62.995 86.211109 
L 65.212222 86.145724 
L 67.429444 86.093204 
L 69.646667 86.01173 
L 71.863889 86.250875 
L 74.081111 85.894176 
L 76.298333 86.144549 
L 78.515556 86.126381 
L 80.732778 86.460756 
L 82.95 86.140248 
L 85.167222 86.305612 
L 87.384444 86.43082 
L 89.601667 86.071478 
L 91.818889 86.299734 
L 94.036111 85.729526 
L 96.253333 85.864251 
L 98.470556 86.014772 
L 100.687778 86.122679 
L 102.905 86.216049 
L 105.122222 85.96338 
L 107.339444 86.071109 
L 109.556667 85.958983 
L 111.773889 86.13024 
L 113.991111 86.159106 
L 116.208333 86.195073 
L 118.425556 85.695005 
L 120.642778 86.056388 
L 122.86 85.841093 
L 125.077222 85.933392 
L 127.294444 86.344452 
L 129.511667 86.06791 
L 131.728889 85.981809 
L 133.946111 85.854735 
L 136.163333 86.186015 
L 138.380556 85.838129 
L 140.597778 86.175278 
L 142.815 86.528212 
L 145.032222 86.010639 
L 147.249444 86.030993 
L 149.466667 86.00922 
L 151.683889 86.590851 
L 153.901111 85.848004 
L 156.118333 85.845748 
L 158.335556 86.035981 
L 160.552778 86.411175 
L 162.77 86.66682 
L 164.987222 86.256035 
L 167.204444 85.834626 
L 169.421667 86.275177 
L 171.638889 85.927722 
L 173.856111 85.773513 
L 176.073333 86.041998 
L 178.290556 86.157219 
L 180.507778 86.353023 
L 182.725 86.221777 
L 184.942222 86.097775 
L 187.159444 85.993993 
L 189.376667 86.20397 
L 191.593889 85.88653 
L 193.811111 85.659519 
" style="fill:none;stroke:#000000;stroke-linecap:square;stroke-width:0.333333;"/>
   </g>
   <g id="line2d_13">
    <path clip-path="url(#pd69f0cc480)" d="M 51.908889 81.853013 
L 54.126111 78.848987 
L 56.343333 78.848987 
L 58.560556 79.645973 
L 60.777778 76.58064 
L 62.995 74.434907 
L 65.212222 78.41984 
L 67.429444 79.768587 
L 69.646667 82.772613 
L 71.863889 84.182667 
L 74.081111 82.65 
L 76.298333 92.336453 
L 78.515556 81.17864 
L 80.732778 79.400747 
L 82.95 74.92536 
L 85.167222 70.32736 
L 87.384444 60.886133 
L 89.601667 52.241893 
L 91.818889 51.690133 
L 94.036111 47.15344 
L 96.253333 46.23384 
L 98.470556 41.697147 
L 100.687778 40.961467 
L 102.905 41.45192 
L 105.122222 35.689093 
L 107.339444 45.252933 
L 109.556667 42.55544 
L 111.773889 42.00368 
L 113.991111 38.938347 
L 116.208333 38.5092 
L 118.425556 45.13032 
L 120.642778 46.662987 
L 122.86 57.45296 
L 125.077222 58.37256 
L 127.294444 59.353467 
L 129.511667 61.070053 
L 131.728889 58.495173 
L 133.946111 50.893147 
L 136.163333 51.19968 
L 138.380556 50.034853 
L 140.597778 45.49816 
L 142.815 46.479067 
L 145.032222 45.927307 
L 147.249444 49.850933 
L 149.466667 45.68208 
L 151.683889 48.80872 
L 153.901111 50.64792 
L 156.118333 51.19968 
L 158.335556 51.996667 
L 160.552778 58.37256 
L 162.77 61.86704 
L 164.987222 65.422827 
L 167.204444 64.258 
L 169.421667 67.875093 
L 171.638889 67.139413 
L 173.856111 62.05096 
L 176.073333 53.651947 
L 178.290556 49.36048 
L 180.507778 53.897173 
L 182.725 47.643893 
L 184.942222 45.988613 
L 187.159444 44.639867 
L 189.376667 45.559467 
L 191.593889 43.352427 
L 193.811111 41.45192 
" style="fill:none;stroke:#ff0000;stroke-linecap:square;stroke-width:0.9375;"/>
   </g>
   <g id="line2d_14">
    <path clip-path="url(#pd69f0cc480)" d="M 51.908889 72.387931 
L 54.126111 69.855276 
L 56.343333 65.54657 
L 58.560556 68.136637 
L 60.777778 63.123303 
L 62.995 63.269517 
L 65.212222 69.243479 
L 67.429444 68.628978 
L 69.646667 71.632161 
L 71.863889 75.569135 
L 74.081111 72.397846 
L 76.298333 81.570018 
L 78.515556 65.516136 
L 80.732778 63.687093 
L 82.95 58.154989 
L 85.167222 56.626452 
L 87.384444 49.796572 
L 89.601667 44.939191 
L 91.818889 44.116837 
L 94.036111 41.765425 
L 96.253333 34.86166 
L 98.470556 31.842017 
L 100.687778 32.216935 
L 102.905 31.50946 
L 105.122222 28.319787 
L 107.339444 35.412306 
L 109.556667 30.941265 
L 111.773889 33.729324 
L 113.991111 28.256902 
L 116.208333 28.818673 
L 118.425556 35.54587 
L 120.642778 34.634375 
L 122.86 44.951209 
L 125.077222 47.271312 
L 127.294444 47.98856 
L 129.511667 50.749208 
L 131.728889 45.953651 
L 133.946111 37.701382 
L 136.163333 37.376964 
L 138.380556 37.230563 
L 140.597778 35.374389 
L 142.815 35.307619 
L 145.032222 32.37257 
L 147.249444 38.97699 
L 149.466667 32.764546 
L 151.683889 35.40217 
L 153.901111 35.555892 
L 156.118333 32.681819 
L 158.335556 32.81199 
L 160.552778 42.767755 
L 162.77 44.716069 
L 164.987222 46.004575 
L 167.204444 46.832989 
L 169.421667 51.899559 
L 171.638889 52.751795 
L 173.856111 49.834309 
L 176.073333 39.720892 
L 178.290556 36.947432 
L 180.507778 41.980318 
L 182.725 32.721795 
L 184.942222 32.905564 
L 187.159444 30.324399 
L 189.376667 33.611743 
L 191.593889 32.134144 
L 193.811111 32.474941 
" style="fill:none;stroke:#ff0000;stroke-linecap:square;stroke-width:0.333333;"/>
   </g>
   <g id="line2d_15">
    <path clip-path="url(#pd69f0cc480)" d="M 51.908889 91.318096 
L 54.126111 87.842698 
L 56.343333 92.151403 
L 58.560556 91.15531 
L 60.777778 90.037977 
L 62.995 85.600297 
L 65.212222 87.596201 
L 67.429444 90.908195 
L 69.646667 93.913065 
L 71.863889 92.796199 
L 74.081111 92.902154 
L 76.298333 103.102888 
L 78.515556 96.841144 
L 80.732778 95.1144 
L 82.95 91.695731 
L 85.167222 84.028268 
L 87.384444 71.975694 
L 89.601667 59.544596 
L 91.818889 59.26343 
L 94.036111 52.541455 
L 96.253333 57.60602 
L 98.470556 51.552277 
L 100.687778 49.705998 
L 102.905 51.39438 
L 105.122222 43.058399 
L 107.339444 55.09356 
L 109.556667 54.169615 
L 111.773889 50.278036 
L 113.991111 49.619791 
L 116.208333 48.199727 
L 118.425556 54.71477 
L 120.642778 58.691598 
L 122.86 69.954711 
L 125.077222 69.473808 
L 127.294444 70.718373 
L 129.511667 71.390899 
L 131.728889 71.036695 
L 133.946111 64.084911 
L 136.163333 65.022396 
L 138.380556 62.839144 
L 140.597778 55.621931 
L 142.815 57.650514 
L 145.032222 59.482043 
L 147.249444 60.724877 
L 149.466667 58.599614 
L 151.683889 62.21527 
L 153.901111 65.739948 
L 156.118333 69.717541 
L 158.335556 71.181344 
L 160.552778 73.977365 
L 162.77 79.018011 
L 164.987222 84.841078 
L 167.204444 81.683011 
L 169.421667 83.850627 
L 171.638889 81.527031 
L 173.856111 74.267611 
L 176.073333 67.583001 
L 178.290556 61.773528 
L 180.507778 65.814029 
L 182.725 62.565991 
L 184.942222 59.071663 
L 187.159444 58.955334 
L 189.376667 57.507191 
L 191.593889 54.570709 
L 193.811111 50.428899 
" style="fill:none;stroke:#ff0000;stroke-linecap:square;stroke-width:0.333333;"/>
   </g>
   <g id="patch_3">
    <path d="M 43.04 105.64 
L 43.04 13.68 
" style="fill:none;stroke:#000000;stroke-linecap:square;stroke-linejoin:miter;stroke-width:0.8;"/>
   </g>
   <g id="patch_4">
    <path d="M 202.68 105.64 
L 202.68 13.68 
" style="fill:none;stroke:#000000;stroke-linecap:square;stroke-linejoin:miter;stroke-width:0.8;"/>
   </g>
   <g id="patch_5">
    <path d="M 43.04 105.64 
L 202.68 105.64 
" style="fill:none;stroke:#000000;stroke-linecap:square;stroke-linejoin:miter;stroke-width:0.8;"/>
   </g>
   <g id="patch_6">
    <path d="M 43.04 13.68 
L 202.68 13.68 
" style="fill:none;stroke:#000000;stroke-linecap:square;stroke-linejoin:miter;stroke-width:0.8;"/>
   </g>
  </g>
 </g>
 <defs>
  <clipPath id="pd69f0cc480">
   <rect height="91.96" width="159.64" x="43.04" y="13.68"/>
  </clipPath>
 </defs>
</svg>
