<?xml version="1.0" encoding="utf-8" standalone="no"?>
<!DOCTYPE svg PUBLIC "-//W3C//DTD SVG 1.1//EN"
  "http://www.w3.org/Graphics/SVG/1.1/DTD/svg11.dtd">
<!-- Created with matplotlib (http://matplotlib.org/) -->
<svg height="144pt" version="1.1" viewBox="0 0 216 144" width="216pt" xmlns="http://www.w3.org/2000/svg" xmlns:xlink="http://www.w3.org/1999/xlink">
 <defs>
  <style type="text/css">
*{stroke-linecap:butt;stroke-linejoin:round;}
  </style>
 </defs>
 <g id="figure_1">
  <g id="patch_1">
   <path d="M 0 144 
L 216 144 
L 216 0 
L 0 0 
z
" style="fill:#ffffff;"/>
  </g>
  <g id="axes_1">
   <g id="patch_2">
    <path d="M 43.04 105.64 
L 202.68 105.64 
L 202.68 13.68 
L 43.04 13.68 
z
" style="fill:#ffffff;"/>
   </g>
   <g id="PolyCollection_1">
    <path clip-path="url(#pbd5ef5f442)" d="M 91.818889 101.808333 
L 91.818889 105.64 
L 94.036111 105.64 
L 96.253333 105.64 
L 98.470556 105.64 
L 100.687778 105.64 
L 102.905 105.64 
L 105.122222 105.64 
L 107.339444 105.64 
L 109.556667 105.64 
L 111.773889 105.64 
L 113.991111 105.64 
L 116.208333 105.64 
L 118.425556 105.64 
L 118.425556 101.808333 
L 118.425556 101.808333 
L 116.208333 101.808333 
L 113.991111 101.808333 
L 111.773889 101.808333 
L 109.556667 101.808333 
L 107.339444 101.808333 
L 105.122222 101.808333 
L 102.905 101.808333 
L 100.687778 101.808333 
L 98.470556 101.808333 
L 96.253333 101.808333 
L 94.036111 101.808333 
L 91.818889 101.808333 
z
" style="fill-opacity:0.2;"/>
    <path clip-path="url(#pbd5ef5f442)" d="M 127.294444 101.808333 
L 127.294444 105.64 
L 129.511667 105.64 
L 131.728889 105.64 
L 131.728889 101.808333 
L 131.728889 101.808333 
L 129.511667 101.808333 
L 127.294444 101.808333 
z
" style="fill-opacity:0.2;"/>
   </g>
   <g id="matplotlib.axis_1">
    <g id="xtick_1">
     <g id="line2d_1">
      <defs>
       <path d="M 0 0 
L 0 3.5 
" id="m4e17033412" style="stroke:#000000;stroke-width:0.8;"/>
      </defs>
      <g>
       <use style="stroke:#000000;stroke-width:0.8;" x="78.515556" xlink:href="#m4e17033412" y="105.64"/>
      </g>
     </g>
     <g id="text_1">
      <!-- 0 -->
      <defs>
       <path d="M 31.78125 66.40625 
Q 24.171875 66.40625 20.328125 58.90625 
Q 16.5 51.421875 16.5 36.375 
Q 16.5 21.390625 20.328125 13.890625 
Q 24.171875 6.390625 31.78125 6.390625 
Q 39.453125 6.390625 43.28125 13.890625 
Q 47.125 21.390625 47.125 36.375 
Q 47.125 51.421875 43.28125 58.90625 
Q 39.453125 66.40625 31.78125 66.40625 
z
M 31.78125 74.21875 
Q 44.046875 74.21875 50.515625 64.515625 
Q 56.984375 54.828125 56.984375 36.375 
Q 56.984375 17.96875 50.515625 8.265625 
Q 44.046875 -1.421875 31.78125 -1.421875 
Q 19.53125 -1.421875 13.0625 8.265625 
Q 6.59375 17.96875 6.59375 36.375 
Q 6.59375 54.828125 13.0625 64.515625 
Q 19.53125 74.21875 31.78125 74.21875 
z
" id="DejaVuSans-30"/>
      </defs>
      <g transform="translate(76.129618 118.338828)scale(0.075 -0.075)">
       <use xlink:href="#DejaVuSans-30"/>
      </g>
     </g>
    </g>
    <g id="xtick_2">
     <g id="line2d_2">
      <g>
       <use style="stroke:#000000;stroke-width:0.8;" x="122.86" xlink:href="#m4e17033412" y="105.64"/>
      </g>
     </g>
     <g id="text_2">
      <!-- 500 -->
      <defs>
       <path d="M 10.796875 72.90625 
L 49.515625 72.90625 
L 49.515625 64.59375 
L 19.828125 64.59375 
L 19.828125 46.734375 
Q 21.96875 47.46875 24.109375 47.828125 
Q 26.265625 48.1875 28.421875 48.1875 
Q 40.625 48.1875 47.75 41.5 
Q 54.890625 34.8125 54.890625 23.390625 
Q 54.890625 11.625 47.5625 5.09375 
Q 40.234375 -1.421875 26.90625 -1.421875 
Q 22.3125 -1.421875 17.546875 -0.640625 
Q 12.796875 0.140625 7.71875 1.703125 
L 7.71875 11.625 
Q 12.109375 9.234375 16.796875 8.0625 
Q 21.484375 6.890625 26.703125 6.890625 
Q 35.15625 6.890625 40.078125 11.328125 
Q 45.015625 15.765625 45.015625 23.390625 
Q 45.015625 31 40.078125 35.4375 
Q 35.15625 39.890625 26.703125 39.890625 
Q 22.75 39.890625 18.8125 39.015625 
Q 14.890625 38.140625 10.796875 36.28125 
z
" id="DejaVuSans-35"/>
      </defs>
      <g transform="translate(115.702187 118.338828)scale(0.075 -0.075)">
       <use xlink:href="#DejaVuSans-35"/>
       <use x="63.623047" xlink:href="#DejaVuSans-30"/>
       <use x="127.246094" xlink:href="#DejaVuSans-30"/>
      </g>
     </g>
    </g>
    <g id="xtick_3">
     <g id="line2d_3">
      <g>
       <use style="stroke:#000000;stroke-width:0.8;" x="167.204444" xlink:href="#m4e17033412" y="105.64"/>
      </g>
     </g>
     <g id="text_3">
      <!-- 1000 -->
      <defs>
       <path d="M 12.40625 8.296875 
L 28.515625 8.296875 
L 28.515625 63.921875 
L 10.984375 60.40625 
L 10.984375 69.390625 
L 28.421875 72.90625 
L 38.28125 72.90625 
L 38.28125 8.296875 
L 54.390625 8.296875 
L 54.390625 0 
L 12.40625 0 
z
" id="DejaVuSans-31"/>
      </defs>
      <g transform="translate(157.660694 118.338828)scale(0.075 -0.075)">
       <use xlink:href="#DejaVuSans-31"/>
       <use x="63.623047" xlink:href="#DejaVuSans-30"/>
       <use x="127.246094" xlink:href="#DejaVuSans-30"/>
       <use x="190.869141" xlink:href="#DejaVuSans-30"/>
      </g>
     </g>
    </g>
    <g id="text_4">
     <!-- time [ms] -->
     <defs>
      <path d="M 18.3125 70.21875 
L 18.3125 54.6875 
L 36.8125 54.6875 
L 36.8125 47.703125 
L 18.3125 47.703125 
L 18.3125 18.015625 
Q 18.3125 11.328125 20.140625 9.421875 
Q 21.96875 7.515625 27.59375 7.515625 
L 36.8125 7.515625 
L 36.8125 0 
L 27.59375 0 
Q 17.1875 0 13.234375 3.875 
Q 9.28125 7.765625 9.28125 18.015625 
L 9.28125 47.703125 
L 2.6875 47.703125 
L 2.6875 54.6875 
L 9.28125 54.6875 
L 9.28125 70.21875 
z
" id="DejaVuSans-74"/>
      <path d="M 9.421875 54.6875 
L 18.40625 54.6875 
L 18.40625 0 
L 9.421875 0 
z
M 9.421875 75.984375 
L 18.40625 75.984375 
L 18.40625 64.59375 
L 9.421875 64.59375 
z
" id="DejaVuSans-69"/>
      <path d="M 52 44.1875 
Q 55.375 50.25 60.0625 53.125 
Q 64.75 56 71.09375 56 
Q 79.640625 56 84.28125 50.015625 
Q 88.921875 44.046875 88.921875 33.015625 
L 88.921875 0 
L 79.890625 0 
L 79.890625 32.71875 
Q 79.890625 40.578125 77.09375 44.375 
Q 74.3125 48.1875 68.609375 48.1875 
Q 61.625 48.1875 57.5625 43.546875 
Q 53.515625 38.921875 53.515625 30.90625 
L 53.515625 0 
L 44.484375 0 
L 44.484375 32.71875 
Q 44.484375 40.625 41.703125 44.40625 
Q 38.921875 48.1875 33.109375 48.1875 
Q 26.21875 48.1875 22.15625 43.53125 
Q 18.109375 38.875 18.109375 30.90625 
L 18.109375 0 
L 9.078125 0 
L 9.078125 54.6875 
L 18.109375 54.6875 
L 18.109375 46.1875 
Q 21.1875 51.21875 25.484375 53.609375 
Q 29.78125 56 35.6875 56 
Q 41.65625 56 45.828125 52.96875 
Q 50 49.953125 52 44.1875 
z
" id="DejaVuSans-6d"/>
      <path d="M 56.203125 29.59375 
L 56.203125 25.203125 
L 14.890625 25.203125 
Q 15.484375 15.921875 20.484375 11.0625 
Q 25.484375 6.203125 34.421875 6.203125 
Q 39.59375 6.203125 44.453125 7.46875 
Q 49.3125 8.734375 54.109375 11.28125 
L 54.109375 2.78125 
Q 49.265625 0.734375 44.1875 -0.34375 
Q 39.109375 -1.421875 33.890625 -1.421875 
Q 20.796875 -1.421875 13.15625 6.1875 
Q 5.515625 13.8125 5.515625 26.8125 
Q 5.515625 40.234375 12.765625 48.109375 
Q 20.015625 56 32.328125 56 
Q 43.359375 56 49.78125 48.890625 
Q 56.203125 41.796875 56.203125 29.59375 
z
M 47.21875 32.234375 
Q 47.125 39.59375 43.09375 43.984375 
Q 39.0625 48.390625 32.421875 48.390625 
Q 24.90625 48.390625 20.390625 44.140625 
Q 15.875 39.890625 15.1875 32.171875 
z
" id="DejaVuSans-65"/>
      <path id="DejaVuSans-20"/>
      <path d="M 8.59375 75.984375 
L 29.296875 75.984375 
L 29.296875 69 
L 17.578125 69 
L 17.578125 -6.203125 
L 29.296875 -6.203125 
L 29.296875 -13.1875 
L 8.59375 -13.1875 
z
" id="DejaVuSans-5b"/>
      <path d="M 44.28125 53.078125 
L 44.28125 44.578125 
Q 40.484375 46.53125 36.375 47.5 
Q 32.28125 48.484375 27.875 48.484375 
Q 21.1875 48.484375 17.84375 46.4375 
Q 14.5 44.390625 14.5 40.28125 
Q 14.5 37.15625 16.890625 35.375 
Q 19.28125 33.59375 26.515625 31.984375 
L 29.59375 31.296875 
Q 39.15625 29.25 43.1875 25.515625 
Q 47.21875 21.78125 47.21875 15.09375 
Q 47.21875 7.46875 41.1875 3.015625 
Q 35.15625 -1.421875 24.609375 -1.421875 
Q 20.21875 -1.421875 15.453125 -0.5625 
Q 10.6875 0.296875 5.421875 2 
L 5.421875 11.28125 
Q 10.40625 8.6875 15.234375 7.390625 
Q 20.0625 6.109375 24.8125 6.109375 
Q 31.15625 6.109375 34.5625 8.28125 
Q 37.984375 10.453125 37.984375 14.40625 
Q 37.984375 18.0625 35.515625 20.015625 
Q 33.0625 21.96875 24.703125 23.78125 
L 21.578125 24.515625 
Q 13.234375 26.265625 9.515625 29.90625 
Q 5.8125 33.546875 5.8125 39.890625 
Q 5.8125 47.609375 11.28125 51.796875 
Q 16.75 56 26.8125 56 
Q 31.78125 56 36.171875 55.265625 
Q 40.578125 54.546875 44.28125 53.078125 
z
" id="DejaVuSans-73"/>
      <path d="M 30.421875 75.984375 
L 30.421875 -13.1875 
L 9.71875 -13.1875 
L 9.71875 -6.203125 
L 21.390625 -6.203125 
L 21.390625 69 
L 9.71875 69 
L 9.71875 75.984375 
z
" id="DejaVuSans-5d"/>
     </defs>
     <g transform="translate(100.114639 131.022129)scale(0.09375 -0.09375)">
      <use xlink:href="#DejaVuSans-74"/>
      <use x="39.208984" xlink:href="#DejaVuSans-69"/>
      <use x="66.992188" xlink:href="#DejaVuSans-6d"/>
      <use x="164.404297" xlink:href="#DejaVuSans-65"/>
      <use x="225.927734" xlink:href="#DejaVuSans-20"/>
      <use x="257.714844" xlink:href="#DejaVuSans-5b"/>
      <use x="296.728516" xlink:href="#DejaVuSans-6d"/>
      <use x="394.140625" xlink:href="#DejaVuSans-73"/>
      <use x="446.240234" xlink:href="#DejaVuSans-5d"/>
     </g>
    </g>
   </g>
   <g id="matplotlib.axis_2">
    <g id="ytick_1">
     <g id="line2d_4">
      <defs>
       <path d="M 0 0 
L -3.5 0 
" id="mda65f373cd" style="stroke:#000000;stroke-width:0.8;"/>
      </defs>
      <g>
       <use style="stroke:#000000;stroke-width:0.8;" x="43.04" xlink:href="#mda65f373cd" y="105.64"/>
      </g>
     </g>
     <g id="text_5">
      <!-- 0.3 -->
      <defs>
       <path d="M 10.6875 12.40625 
L 21 12.40625 
L 21 0 
L 10.6875 0 
z
" id="DejaVuSans-2e"/>
       <path d="M 40.578125 39.3125 
Q 47.65625 37.796875 51.625 33 
Q 55.609375 28.21875 55.609375 21.1875 
Q 55.609375 10.40625 48.1875 4.484375 
Q 40.765625 -1.421875 27.09375 -1.421875 
Q 22.515625 -1.421875 17.65625 -0.515625 
Q 12.796875 0.390625 7.625 2.203125 
L 7.625 11.71875 
Q 11.71875 9.328125 16.59375 8.109375 
Q 21.484375 6.890625 26.8125 6.890625 
Q 36.078125 6.890625 40.9375 10.546875 
Q 45.796875 14.203125 45.796875 21.1875 
Q 45.796875 27.640625 41.28125 31.265625 
Q 36.765625 34.90625 28.71875 34.90625 
L 20.21875 34.90625 
L 20.21875 43.015625 
L 29.109375 43.015625 
Q 36.375 43.015625 40.234375 45.921875 
Q 44.09375 48.828125 44.09375 54.296875 
Q 44.09375 59.90625 40.109375 62.90625 
Q 36.140625 65.921875 28.71875 65.921875 
Q 24.65625 65.921875 20.015625 65.03125 
Q 15.375 64.15625 9.8125 62.3125 
L 9.8125 71.09375 
Q 15.4375 72.65625 20.34375 73.4375 
Q 25.25 74.21875 29.59375 74.21875 
Q 40.828125 74.21875 47.359375 69.109375 
Q 53.90625 64.015625 53.90625 55.328125 
Q 53.90625 49.265625 50.4375 45.09375 
Q 46.96875 40.921875 40.578125 39.3125 
z
" id="DejaVuSans-33"/>
      </defs>
      <g transform="translate(24.112656 108.489414)scale(0.075 -0.075)">
       <use xlink:href="#DejaVuSans-30"/>
       <use x="63.623047" xlink:href="#DejaVuSans-2e"/>
       <use x="95.410156" xlink:href="#DejaVuSans-33"/>
      </g>
     </g>
    </g>
    <g id="ytick_2">
     <g id="line2d_5">
      <g>
       <use style="stroke:#000000;stroke-width:0.8;" x="43.04" xlink:href="#mda65f373cd" y="90.313333"/>
      </g>
     </g>
     <g id="text_6">
      <!-- 0.4 -->
      <defs>
       <path d="M 37.796875 64.3125 
L 12.890625 25.390625 
L 37.796875 25.390625 
z
M 35.203125 72.90625 
L 47.609375 72.90625 
L 47.609375 25.390625 
L 58.015625 25.390625 
L 58.015625 17.1875 
L 47.609375 17.1875 
L 47.609375 0 
L 37.796875 0 
L 37.796875 17.1875 
L 4.890625 17.1875 
L 4.890625 26.703125 
z
" id="DejaVuSans-34"/>
      </defs>
      <g transform="translate(24.112656 93.162747)scale(0.075 -0.075)">
       <use xlink:href="#DejaVuSans-30"/>
       <use x="63.623047" xlink:href="#DejaVuSans-2e"/>
       <use x="95.410156" xlink:href="#DejaVuSans-34"/>
      </g>
     </g>
    </g>
    <g id="ytick_3">
     <g id="line2d_6">
      <g>
       <use style="stroke:#000000;stroke-width:0.8;" x="43.04" xlink:href="#mda65f373cd" y="74.986667"/>
      </g>
     </g>
     <g id="text_7">
      <!-- 0.5 -->
      <g transform="translate(24.112656 77.836081)scale(0.075 -0.075)">
       <use xlink:href="#DejaVuSans-30"/>
       <use x="63.623047" xlink:href="#DejaVuSans-2e"/>
       <use x="95.410156" xlink:href="#DejaVuSans-35"/>
      </g>
     </g>
    </g>
    <g id="ytick_4">
     <g id="line2d_7">
      <g>
       <use style="stroke:#000000;stroke-width:0.8;" x="43.04" xlink:href="#mda65f373cd" y="59.66"/>
      </g>
     </g>
     <g id="text_8">
      <!-- 0.6 -->
      <defs>
       <path d="M 33.015625 40.375 
Q 26.375 40.375 22.484375 35.828125 
Q 18.609375 31.296875 18.609375 23.390625 
Q 18.609375 15.53125 22.484375 10.953125 
Q 26.375 6.390625 33.015625 6.390625 
Q 39.65625 6.390625 43.53125 10.953125 
Q 47.40625 15.53125 47.40625 23.390625 
Q 47.40625 31.296875 43.53125 35.828125 
Q 39.65625 40.375 33.015625 40.375 
z
M 52.59375 71.296875 
L 52.59375 62.3125 
Q 48.875 64.0625 45.09375 64.984375 
Q 41.3125 65.921875 37.59375 65.921875 
Q 27.828125 65.921875 22.671875 59.328125 
Q 17.53125 52.734375 16.796875 39.40625 
Q 19.671875 43.65625 24.015625 45.921875 
Q 28.375 48.1875 33.59375 48.1875 
Q 44.578125 48.1875 50.953125 41.515625 
Q 57.328125 34.859375 57.328125 23.390625 
Q 57.328125 12.15625 50.6875 5.359375 
Q 44.046875 -1.421875 33.015625 -1.421875 
Q 20.359375 -1.421875 13.671875 8.265625 
Q 6.984375 17.96875 6.984375 36.375 
Q 6.984375 53.65625 15.1875 63.9375 
Q 23.390625 74.21875 37.203125 74.21875 
Q 40.921875 74.21875 44.703125 73.484375 
Q 48.484375 72.75 52.59375 71.296875 
z
" id="DejaVuSans-36"/>
      </defs>
      <g transform="translate(24.112656 62.509414)scale(0.075 -0.075)">
       <use xlink:href="#DejaVuSans-30"/>
       <use x="63.623047" xlink:href="#DejaVuSans-2e"/>
       <use x="95.410156" xlink:href="#DejaVuSans-36"/>
      </g>
     </g>
    </g>
    <g id="ytick_5">
     <g id="line2d_8">
      <g>
       <use style="stroke:#000000;stroke-width:0.8;" x="43.04" xlink:href="#mda65f373cd" y="44.333333"/>
      </g>
     </g>
     <g id="text_9">
      <!-- 0.7 -->
      <defs>
       <path d="M 8.203125 72.90625 
L 55.078125 72.90625 
L 55.078125 68.703125 
L 28.609375 0 
L 18.3125 0 
L 43.21875 64.59375 
L 8.203125 64.59375 
z
" id="DejaVuSans-37"/>
      </defs>
      <g transform="translate(24.112656 47.182747)scale(0.075 -0.075)">
       <use xlink:href="#DejaVuSans-30"/>
       <use x="63.623047" xlink:href="#DejaVuSans-2e"/>
       <use x="95.410156" xlink:href="#DejaVuSans-37"/>
      </g>
     </g>
    </g>
    <g id="ytick_6">
     <g id="line2d_9">
      <g>
       <use style="stroke:#000000;stroke-width:0.8;" x="43.04" xlink:href="#mda65f373cd" y="29.006667"/>
      </g>
     </g>
     <g id="text_10">
      <!-- 0.8 -->
      <defs>
       <path d="M 31.78125 34.625 
Q 24.75 34.625 20.71875 30.859375 
Q 16.703125 27.09375 16.703125 20.515625 
Q 16.703125 13.921875 20.71875 10.15625 
Q 24.75 6.390625 31.78125 6.390625 
Q 38.8125 6.390625 42.859375 10.171875 
Q 46.921875 13.96875 46.921875 20.515625 
Q 46.921875 27.09375 42.890625 30.859375 
Q 38.875 34.625 31.78125 34.625 
z
M 21.921875 38.8125 
Q 15.578125 40.375 12.03125 44.71875 
Q 8.5 49.078125 8.5 55.328125 
Q 8.5 64.0625 14.71875 69.140625 
Q 20.953125 74.21875 31.78125 74.21875 
Q 42.671875 74.21875 48.875 69.140625 
Q 55.078125 64.0625 55.078125 55.328125 
Q 55.078125 49.078125 51.53125 44.71875 
Q 48 40.375 41.703125 38.8125 
Q 48.828125 37.15625 52.796875 32.3125 
Q 56.78125 27.484375 56.78125 20.515625 
Q 56.78125 9.90625 50.3125 4.234375 
Q 43.84375 -1.421875 31.78125 -1.421875 
Q 19.734375 -1.421875 13.25 4.234375 
Q 6.78125 9.90625 6.78125 20.515625 
Q 6.78125 27.484375 10.78125 32.3125 
Q 14.796875 37.15625 21.921875 38.8125 
z
M 18.3125 54.390625 
Q 18.3125 48.734375 21.84375 45.5625 
Q 25.390625 42.390625 31.78125 42.390625 
Q 38.140625 42.390625 41.71875 45.5625 
Q 45.3125 48.734375 45.3125 54.390625 
Q 45.3125 60.0625 41.71875 63.234375 
Q 38.140625 66.40625 31.78125 66.40625 
Q 25.390625 66.40625 21.84375 63.234375 
Q 18.3125 60.0625 18.3125 54.390625 
z
" id="DejaVuSans-38"/>
      </defs>
      <g transform="translate(24.112656 31.856081)scale(0.075 -0.075)">
       <use xlink:href="#DejaVuSans-30"/>
       <use x="63.623047" xlink:href="#DejaVuSans-2e"/>
       <use x="95.410156" xlink:href="#DejaVuSans-38"/>
      </g>
     </g>
    </g>
    <g id="ytick_7">
     <g id="line2d_10">
      <g>
       <use style="stroke:#000000;stroke-width:0.8;" x="43.04" xlink:href="#mda65f373cd" y="13.68"/>
      </g>
     </g>
     <g id="text_11">
      <!-- 0.9 -->
      <defs>
       <path d="M 10.984375 1.515625 
L 10.984375 10.5 
Q 14.703125 8.734375 18.5 7.8125 
Q 22.3125 6.890625 25.984375 6.890625 
Q 35.75 6.890625 40.890625 13.453125 
Q 46.046875 20.015625 46.78125 33.40625 
Q 43.953125 29.203125 39.59375 26.953125 
Q 35.25 24.703125 29.984375 24.703125 
Q 19.046875 24.703125 12.671875 31.3125 
Q 6.296875 37.9375 6.296875 49.421875 
Q 6.296875 60.640625 12.9375 67.421875 
Q 19.578125 74.21875 30.609375 74.21875 
Q 43.265625 74.21875 49.921875 64.515625 
Q 56.59375 54.828125 56.59375 36.375 
Q 56.59375 19.140625 48.40625 8.859375 
Q 40.234375 -1.421875 26.421875 -1.421875 
Q 22.703125 -1.421875 18.890625 -0.6875 
Q 15.09375 0.046875 10.984375 1.515625 
z
M 30.609375 32.421875 
Q 37.25 32.421875 41.125 36.953125 
Q 45.015625 41.5 45.015625 49.421875 
Q 45.015625 57.28125 41.125 61.84375 
Q 37.25 66.40625 30.609375 66.40625 
Q 23.96875 66.40625 20.09375 61.84375 
Q 16.21875 57.28125 16.21875 49.421875 
Q 16.21875 41.5 20.09375 36.953125 
Q 23.96875 32.421875 30.609375 32.421875 
z
" id="DejaVuSans-39"/>
      </defs>
      <g transform="translate(24.112656 16.529414)scale(0.075 -0.075)">
       <use xlink:href="#DejaVuSans-30"/>
       <use x="63.623047" xlink:href="#DejaVuSans-2e"/>
       <use x="95.410156" xlink:href="#DejaVuSans-39"/>
      </g>
     </g>
    </g>
    <g id="text_12">
     <!-- acc -->
     <defs>
      <path d="M 34.28125 27.484375 
Q 23.390625 27.484375 19.1875 25 
Q 14.984375 22.515625 14.984375 16.5 
Q 14.984375 11.71875 18.140625 8.90625 
Q 21.296875 6.109375 26.703125 6.109375 
Q 34.1875 6.109375 38.703125 11.40625 
Q 43.21875 16.703125 43.21875 25.484375 
L 43.21875 27.484375 
z
M 52.203125 31.203125 
L 52.203125 0 
L 43.21875 0 
L 43.21875 8.296875 
Q 40.140625 3.328125 35.546875 0.953125 
Q 30.953125 -1.421875 24.3125 -1.421875 
Q 15.921875 -1.421875 10.953125 3.296875 
Q 6 8.015625 6 15.921875 
Q 6 25.140625 12.171875 29.828125 
Q 18.359375 34.515625 30.609375 34.515625 
L 43.21875 34.515625 
L 43.21875 35.40625 
Q 43.21875 41.609375 39.140625 45 
Q 35.0625 48.390625 27.6875 48.390625 
Q 23 48.390625 18.546875 47.265625 
Q 14.109375 46.140625 10.015625 43.890625 
L 10.015625 52.203125 
Q 14.9375 54.109375 19.578125 55.046875 
Q 24.21875 56 28.609375 56 
Q 40.484375 56 46.34375 49.84375 
Q 52.203125 43.703125 52.203125 31.203125 
z
" id="DejaVuSans-61"/>
      <path d="M 48.78125 52.59375 
L 48.78125 44.1875 
Q 44.96875 46.296875 41.140625 47.34375 
Q 37.3125 48.390625 33.40625 48.390625 
Q 24.65625 48.390625 19.8125 42.84375 
Q 14.984375 37.3125 14.984375 27.296875 
Q 14.984375 17.28125 19.8125 11.734375 
Q 24.65625 6.203125 33.40625 6.203125 
Q 37.3125 6.203125 41.140625 7.25 
Q 44.96875 8.296875 48.78125 10.40625 
L 48.78125 2.09375 
Q 45.015625 0.34375 40.984375 -0.53125 
Q 36.96875 -1.421875 32.421875 -1.421875 
Q 20.0625 -1.421875 12.78125 6.34375 
Q 5.515625 14.109375 5.515625 27.296875 
Q 5.515625 40.671875 12.859375 48.328125 
Q 20.21875 56 33.015625 56 
Q 37.15625 56 41.109375 55.140625 
Q 45.0625 54.296875 48.78125 52.59375 
z
" id="DejaVuSans-63"/>
     </defs>
     <g transform="translate(18.162949 67.687344)rotate(-90)scale(0.09375 -0.09375)">
      <use xlink:href="#DejaVuSans-61"/>
      <use x="61.279297" xlink:href="#DejaVuSans-63"/>
      <use x="116.259766" xlink:href="#DejaVuSans-63"/>
     </g>
    </g>
   </g>
   <g id="line2d_11">
    <path clip-path="url(#pbd5ef5f442)" d="M 51.908889 74.71002 
L 54.126111 75.190511 
L 56.343333 75.134569 
L 58.560556 75.239557 
L 60.777778 75.380562 
L 62.995 75.615826 
L 65.212222 75.225763 
L 67.429444 75.202773 
L 69.646667 74.97134 
L 71.863889 74.713086 
L 74.081111 74.605799 
L 76.298333 74.712319 
L 78.515556 74.666339 
L 80.732778 74.522269 
L 82.95 74.31919 
L 85.167222 74.493148 
L 87.384444 74.263248 
L 89.601667 74.123009 
L 91.818889 74.238725 
L 94.036111 74.623425 
L 96.253333 74.812709 
L 98.470556 74.644116 
L 100.687778 74.48012 
L 102.905 74.55752 
L 105.122222 74.378198 
L 107.339444 74.286238 
L 109.556667 74.205773 
L 111.773889 74.499279 
L 113.991111 74.723814 
L 116.208333 74.619593 
L 118.425556 75.029581 
L 120.642778 75.280939 
L 122.86 75.361404 
L 125.077222 75.441102 
L 127.294444 75.069431 
L 129.511667 74.739907 
L 131.728889 74.654844 
L 133.946111 74.506942 
L 136.163333 74.805812 
L 138.380556 74.510774 
L 140.597778 74.759066 
L 142.815 74.729945 
L 145.032222 75.115411 
L 147.249444 75.054104 
L 149.466667 75.295499 
L 151.683889 75.11771 
L 153.901111 75.407384 
L 156.118333 75.367534 
L 158.335556 75.424243 
L 160.552778 75.187446 
L 162.77 75.434972 
L 164.987222 75.214268 
L 167.204444 74.667872 
L 169.421667 74.736842 
L 171.638889 75.068664 
L 173.856111 75.149129 
L 176.073333 74.881679 
L 178.290556 74.677068 
L 180.507778 74.719216 
L 182.725 75.25565 
L 184.942222 75.197408 
L 187.159444 75.521567 
L 189.376667 75.133036 
L 191.593889 74.88781 
L 193.811111 74.493148 
" style="fill:none;stroke:#000000;stroke-linecap:square;stroke-width:0.9375;"/>
   </g>
   <g id="line2d_12">
    <path clip-path="url(#pbd5ef5f442)" d="M 51.908889 61.70991 
L 54.126111 62.172738 
L 56.343333 62.03516 
L 58.560556 62.226343 
L 60.777778 62.154754 
L 62.995 62.740492 
L 65.212222 61.844726 
L 67.429444 61.910556 
L 69.646667 61.716086 
L 71.863889 61.465765 
L 74.081111 61.140121 
L 76.298333 61.539367 
L 78.515556 61.210799 
L 80.732778 61.323642 
L 82.95 60.966058 
L 85.167222 61.022907 
L 87.384444 60.686104 
L 89.601667 60.210167 
L 91.818889 60.405964 
L 94.036111 61.077666 
L 96.253333 60.986699 
L 98.470556 61.386213 
L 100.687778 60.959427 
L 102.905 60.923281 
L 105.122222 60.769931 
L 107.339444 60.979844 
L 109.556667 60.949743 
L 111.773889 61.125598 
L 113.991111 61.561979 
L 116.208333 61.128392 
L 118.425556 61.268811 
L 120.642778 61.138018 
L 122.86 61.655732 
L 125.077222 62.262902 
L 127.294444 61.935713 
L 129.511667 61.721749 
L 131.728889 61.828532 
L 133.946111 61.260141 
L 136.163333 61.111491 
L 138.380556 61.149881 
L 140.597778 61.387684 
L 142.815 61.643656 
L 145.032222 61.478084 
L 147.249444 61.092145 
L 149.466667 61.518527 
L 151.683889 61.328186 
L 153.901111 61.399246 
L 156.118333 61.73675 
L 158.335556 61.741105 
L 160.552778 61.584493 
L 162.77 61.781871 
L 164.987222 61.915861 
L 167.204444 61.088001 
L 169.421667 61.175129 
L 171.638889 61.582427 
L 173.856111 61.801348 
L 176.073333 61.558225 
L 178.290556 61.475994 
L 180.507778 61.667923 
L 182.725 62.188918 
L 184.942222 62.223646 
L 187.159444 62.396561 
L 189.376667 62.15608 
L 191.593889 61.812843 
L 193.811111 61.222758 
" style="fill:none;stroke:#000000;stroke-linecap:square;stroke-width:0.333333;"/>
   </g>
   <g id="line2d_13">
    <path clip-path="url(#pbd5ef5f442)" d="M 51.908889 87.71013 
L 54.126111 88.208285 
L 56.343333 88.233978 
L 58.560556 88.25277 
L 60.777778 88.60637 
L 62.995 88.49116 
L 65.212222 88.6068 
L 67.429444 88.494989 
L 69.646667 88.226594 
L 71.863889 87.960406 
L 74.081111 88.071477 
L 76.298333 87.885271 
L 78.515556 88.12188 
L 80.732778 87.720895 
L 82.95 87.672323 
L 85.167222 87.963389 
L 87.384444 87.840392 
L 89.601667 88.035851 
L 91.818889 88.071486 
L 94.036111 88.169184 
L 96.253333 88.638719 
L 98.470556 87.902019 
L 100.687778 88.000814 
L 102.905 88.191759 
L 105.122222 87.986465 
L 107.339444 87.592632 
L 109.556667 87.461803 
L 111.773889 87.872959 
L 113.991111 87.88565 
L 116.208333 88.110794 
L 118.425556 88.790352 
L 120.642778 89.423859 
L 122.86 89.067075 
L 125.077222 88.619303 
L 127.294444 88.203149 
L 129.511667 87.758066 
L 131.728889 87.481156 
L 133.946111 87.753743 
L 136.163333 88.500133 
L 138.380556 87.871666 
L 140.597778 88.130447 
L 142.815 87.816234 
L 145.032222 88.752738 
L 147.249444 89.016063 
L 149.466667 89.072471 
L 151.683889 88.907234 
L 153.901111 89.415521 
L 156.118333 88.998319 
L 158.335556 89.107381 
L 160.552778 88.790399 
L 162.77 89.088072 
L 164.987222 88.512675 
L 167.204444 88.247743 
L 169.421667 88.298555 
L 171.638889 88.554902 
L 173.856111 88.496911 
L 176.073333 88.205133 
L 178.290556 87.878142 
L 180.507778 87.77051 
L 182.725 88.322381 
L 184.942222 88.171171 
L 187.159444 88.646573 
L 189.376667 88.109993 
L 191.593889 87.962776 
L 193.811111 87.763538 
" style="fill:none;stroke:#000000;stroke-linecap:square;stroke-width:0.333333;"/>
   </g>
   <g id="line2d_14">
    <path clip-path="url(#pbd5ef5f442)" d="M 51.908889 83.607917 
L 54.126111 79.70728 
L 56.343333 76.78755 
L 58.560556 77.300993 
L 60.777778 74.227997 
L 62.995 71.928997 
L 65.212222 67.08577 
L 67.429444 69.193187 
L 69.646667 70.319697 
L 71.863889 69.52271 
L 74.081111 71.162663 
L 76.298333 66.25813 
L 78.515556 65.185263 
L 80.732778 63.951467 
L 82.95 62.53375 
L 85.167222 62.250207 
L 87.384444 59.161883 
L 89.601667 51.42958 
L 91.818889 48.180327 
L 94.036111 43.559337 
L 96.253333 37.70455 
L 98.470556 39.053297 
L 100.687778 34.27904 
L 102.905 32.953283 
L 105.122222 34.079793 
L 107.339444 35.397887 
L 109.556667 35.79638 
L 111.773889 37.352037 
L 113.991111 44.042127 
L 116.208333 44.869767 
L 118.425556 51.299303 
L 120.642778 51.75144 
L 122.86 53.63662 
L 125.077222 53.000563 
L 127.294444 49.000303 
L 129.511667 52.287873 
L 131.728889 51.720787 
L 133.946111 55.93562 
L 136.163333 58.25761 
L 138.380556 61.17734 
L 140.597778 62.357493 
L 142.815 62.250207 
L 145.032222 68.840673 
L 147.249444 69.79859 
L 149.466667 67.951727 
L 151.683889 63.767547 
L 153.901111 66.909513 
L 156.118333 62.71767 
L 158.335556 60.043167 
L 160.552778 56.39542 
L 162.77 54.32632 
L 164.987222 53.56765 
L 167.204444 57.52193 
L 169.421667 57.368663 
L 171.638889 54.333983 
L 173.856111 57.01615 
L 176.073333 57.184743 
L 178.290556 54.594537 
L 180.507778 60.571937 
L 182.725 61.376587 
L 184.942222 60.83249 
L 187.159444 58.962637 
L 189.376667 61.284627 
L 191.593889 60.46465 
L 193.811111 63.162143 
" style="fill:none;stroke:#ff0000;stroke-linecap:square;stroke-width:0.9375;"/>
   </g>
   <g id="line2d_15">
    <path clip-path="url(#pbd5ef5f442)" d="M 51.908889 71.067006 
L 54.126111 67.892458 
L 56.343333 65.001764 
L 58.560556 64.801075 
L 60.777778 62.81735 
L 62.995 60.704112 
L 65.212222 55.974891 
L 67.429444 57.152083 
L 69.646667 58.442719 
L 71.863889 58.625862 
L 74.081111 60.424971 
L 76.298333 55.261904 
L 78.515556 53.199411 
L 80.732778 52.036031 
L 82.95 50.017213 
L 85.167222 49.492296 
L 87.384444 46.964237 
L 89.601667 39.301828 
L 91.818889 36.399223 
L 94.036111 32.138915 
L 96.253333 26.874346 
L 98.470556 28.197896 
L 100.687778 23.127228 
L 102.905 22.428887 
L 105.122222 24.60091 
L 107.339444 26.050366 
L 109.556667 25.624033 
L 111.773889 27.626005 
L 113.991111 33.642681 
L 116.208333 34.961518 
L 118.425556 41.710581 
L 120.642778 40.988409 
L 122.86 43.713257 
L 125.077222 44.104694 
L 127.294444 38.782982 
L 129.511667 41.641752 
L 131.728889 42.134254 
L 133.946111 45.21187 
L 136.163333 46.742675 
L 138.380556 49.420688 
L 140.597778 50.076309 
L 142.815 49.297233 
L 145.032222 55.501638 
L 147.249444 57.158106 
L 149.466667 56.458576 
L 151.683889 52.774191 
L 153.901111 56.024655 
L 156.118333 51.385522 
L 158.335556 48.748911 
L 160.552778 45.192465 
L 162.77 43.492025 
L 164.987222 42.265662 
L 167.204444 46.18108 
L 169.421667 44.518236 
L 171.638889 41.601141 
L 173.856111 45.392424 
L 176.073333 45.40819 
L 178.290556 44.614596 
L 180.507778 49.750781 
L 182.725 50.097618 
L 184.942222 48.85146 
L 187.159444 47.769922 
L 189.376667 50.223763 
L 191.593889 49.367162 
L 193.811111 52.527902 
" style="fill:none;stroke:#ff0000;stroke-linecap:square;stroke-width:0.333333;"/>
   </g>
   <g id="line2d_16">
    <path clip-path="url(#pbd5ef5f442)" d="M 51.908889 96.148828 
L 54.126111 91.522102 
L 56.343333 88.573336 
L 58.560556 89.800912 
L 60.777778 85.638643 
L 62.995 83.153881 
L 65.212222 78.196649 
L 67.429444 81.23429 
L 69.646667 82.196674 
L 71.863889 80.419558 
L 74.081111 81.900355 
L 76.298333 77.254356 
L 78.515556 77.171116 
L 80.732778 75.866903 
L 82.95 75.050287 
L 85.167222 75.008117 
L 87.384444 71.359529 
L 89.601667 63.557332 
L 91.818889 59.96143 
L 94.036111 54.979758 
L 96.253333 48.534754 
L 98.470556 49.908697 
L 100.687778 45.430852 
L 102.905 43.47768 
L 105.122222 43.558677 
L 107.339444 44.745407 
L 109.556667 45.968727 
L 111.773889 47.078069 
L 113.991111 54.441572 
L 116.208333 54.778015 
L 118.425556 60.888026 
L 120.642778 62.514471 
L 122.86 63.559983 
L 125.077222 61.896433 
L 127.294444 59.217625 
L 129.511667 62.933995 
L 131.728889 61.30732 
L 133.946111 66.65937 
L 136.163333 69.772545 
L 138.380556 72.933992 
L 140.597778 74.638678 
L 142.815 75.203181 
L 145.032222 82.179708 
L 147.249444 82.439074 
L 149.466667 79.444877 
L 151.683889 74.760902 
L 153.901111 77.794371 
L 156.118333 74.049818 
L 158.335556 71.337423 
L 160.552778 67.598375 
L 162.77 65.160615 
L 164.987222 64.869638 
L 167.204444 68.86278 
L 169.421667 70.219091 
L 171.638889 67.066826 
L 173.856111 68.639876 
L 176.073333 68.961297 
L 178.290556 64.574477 
L 180.507778 71.393092 
L 182.725 72.655556 
L 184.942222 72.81352 
L 187.159444 70.155351 
L 189.376667 72.34549 
L 191.593889 71.562138 
L 193.811111 73.796385 
" style="fill:none;stroke:#ff0000;stroke-linecap:square;stroke-width:0.333333;"/>
   </g>
   <g id="patch_3">
    <path d="M 43.04 105.64 
L 43.04 13.68 
" style="fill:none;stroke:#000000;stroke-linecap:square;stroke-linejoin:miter;stroke-width:0.8;"/>
   </g>
   <g id="patch_4">
    <path d="M 202.68 105.64 
L 202.68 13.68 
" style="fill:none;stroke:#000000;stroke-linecap:square;stroke-linejoin:miter;stroke-width:0.8;"/>
   </g>
   <g id="patch_5">
    <path d="M 43.04 105.64 
L 202.68 105.64 
" style="fill:none;stroke:#000000;stroke-linecap:square;stroke-linejoin:miter;stroke-width:0.8;"/>
   </g>
   <g id="patch_6">
    <path d="M 43.04 13.68 
L 202.68 13.68 
" style="fill:none;stroke:#000000;stroke-linecap:square;stroke-linejoin:miter;stroke-width:0.8;"/>
   </g>
  </g>
 </g>
 <defs>
  <clipPath id="pbd5ef5f442">
   <rect height="91.96" width="159.64" x="43.04" y="13.68"/>
  </clipPath>
 </defs>
</svg>
