<?xml version="1.0" encoding="utf-8" standalone="no"?>
<!DOCTYPE svg PUBLIC "-//W3C//DTD SVG 1.1//EN"
  "http://www.w3.org/Graphics/SVG/1.1/DTD/svg11.dtd">
<!-- Created with matplotlib (http://matplotlib.org/) -->
<svg height="144pt" version="1.1" viewBox="0 0 216 144" width="216pt" xmlns="http://www.w3.org/2000/svg" xmlns:xlink="http://www.w3.org/1999/xlink">
 <defs>
  <style type="text/css">
*{stroke-linecap:butt;stroke-linejoin:round;}
  </style>
 </defs>
 <g id="figure_1">
  <g id="patch_1">
   <path d="M 0 144 
L 216 144 
L 216 0 
L 0 0 
z
" style="fill:#ffffff;"/>
  </g>
  <g id="axes_1">
   <g id="patch_2">
    <path d="M 43.04 105.64 
L 202.68 105.64 
L 202.68 13.68 
L 43.04 13.68 
z
" style="fill:#ffffff;"/>
   </g>
   <g id="PolyCollection_1">
    <path clip-path="url(#p4fa57aa73f)" d="M 62.995 101.042 
L 62.995 105.64 
L 65.212222 105.64 
L 67.429444 105.64 
L 69.646667 105.64 
L 71.863889 105.64 
L 74.081111 105.64 
L 76.298333 105.64 
L 78.515556 105.64 
L 78.515556 101.042 
L 78.515556 101.042 
L 76.298333 101.042 
L 74.081111 101.042 
L 71.863889 101.042 
L 69.646667 101.042 
L 67.429444 101.042 
L 65.212222 101.042 
L 62.995 101.042 
z
" style="fill-opacity:0.2;"/>
    <path clip-path="url(#p4fa57aa73f)" d="M 94.036111 101.042 
L 94.036111 105.64 
L 94.036111 101.042 
L 94.036111 101.042 
z
" style="fill-opacity:0.2;"/>
    <path clip-path="url(#p4fa57aa73f)" d="M 129.511667 101.042 
L 129.511667 105.64 
L 129.511667 101.042 
L 129.511667 101.042 
z
" style="fill-opacity:0.2;"/>
    <path clip-path="url(#p4fa57aa73f)" d="M 133.946111 101.042 
L 133.946111 105.64 
L 136.163333 105.64 
L 138.380556 105.64 
L 140.597778 105.64 
L 142.815 105.64 
L 145.032222 105.64 
L 147.249444 105.64 
L 149.466667 105.64 
L 151.683889 105.64 
L 153.901111 105.64 
L 156.118333 105.64 
L 158.335556 105.64 
L 160.552778 105.64 
L 162.77 105.64 
L 162.77 101.042 
L 162.77 101.042 
L 160.552778 101.042 
L 158.335556 101.042 
L 156.118333 101.042 
L 153.901111 101.042 
L 151.683889 101.042 
L 149.466667 101.042 
L 147.249444 101.042 
L 145.032222 101.042 
L 142.815 101.042 
L 140.597778 101.042 
L 138.380556 101.042 
L 136.163333 101.042 
L 133.946111 101.042 
z
" style="fill-opacity:0.2;"/>
   </g>
   <g id="matplotlib.axis_1">
    <g id="xtick_1">
     <g id="line2d_1">
      <defs>
       <path d="M 0 0 
L 0 3.5 
" id="ma5c22f1b17" style="stroke:#000000;stroke-width:0.8;"/>
      </defs>
      <g>
       <use style="stroke:#000000;stroke-width:0.8;" x="78.515556" xlink:href="#ma5c22f1b17" y="105.64"/>
      </g>
     </g>
     <g id="text_1">
      <!-- 0 -->
      <defs>
       <path d="M 31.78125 66.40625 
Q 24.171875 66.40625 20.328125 58.90625 
Q 16.5 51.421875 16.5 36.375 
Q 16.5 21.390625 20.328125 13.890625 
Q 24.171875 6.390625 31.78125 6.390625 
Q 39.453125 6.390625 43.28125 13.890625 
Q 47.125 21.390625 47.125 36.375 
Q 47.125 51.421875 43.28125 58.90625 
Q 39.453125 66.40625 31.78125 66.40625 
z
M 31.78125 74.21875 
Q 44.046875 74.21875 50.515625 64.515625 
Q 56.984375 54.828125 56.984375 36.375 
Q 56.984375 17.96875 50.515625 8.265625 
Q 44.046875 -1.421875 31.78125 -1.421875 
Q 19.53125 -1.421875 13.0625 8.265625 
Q 6.59375 17.96875 6.59375 36.375 
Q 6.59375 54.828125 13.0625 64.515625 
Q 19.53125 74.21875 31.78125 74.21875 
z
" id="DejaVuSans-30"/>
      </defs>
      <g transform="translate(76.129618 118.338828)scale(0.075 -0.075)">
       <use xlink:href="#DejaVuSans-30"/>
      </g>
     </g>
    </g>
    <g id="xtick_2">
     <g id="line2d_2">
      <g>
       <use style="stroke:#000000;stroke-width:0.8;" x="122.86" xlink:href="#ma5c22f1b17" y="105.64"/>
      </g>
     </g>
     <g id="text_2">
      <!-- 500 -->
      <defs>
       <path d="M 10.796875 72.90625 
L 49.515625 72.90625 
L 49.515625 64.59375 
L 19.828125 64.59375 
L 19.828125 46.734375 
Q 21.96875 47.46875 24.109375 47.828125 
Q 26.265625 48.1875 28.421875 48.1875 
Q 40.625 48.1875 47.75 41.5 
Q 54.890625 34.8125 54.890625 23.390625 
Q 54.890625 11.625 47.5625 5.09375 
Q 40.234375 -1.421875 26.90625 -1.421875 
Q 22.3125 -1.421875 17.546875 -0.640625 
Q 12.796875 0.140625 7.71875 1.703125 
L 7.71875 11.625 
Q 12.109375 9.234375 16.796875 8.0625 
Q 21.484375 6.890625 26.703125 6.890625 
Q 35.15625 6.890625 40.078125 11.328125 
Q 45.015625 15.765625 45.015625 23.390625 
Q 45.015625 31 40.078125 35.4375 
Q 35.15625 39.890625 26.703125 39.890625 
Q 22.75 39.890625 18.8125 39.015625 
Q 14.890625 38.140625 10.796875 36.28125 
z
" id="DejaVuSans-35"/>
      </defs>
      <g transform="translate(115.702187 118.338828)scale(0.075 -0.075)">
       <use xlink:href="#DejaVuSans-35"/>
       <use x="63.623047" xlink:href="#DejaVuSans-30"/>
       <use x="127.246094" xlink:href="#DejaVuSans-30"/>
      </g>
     </g>
    </g>
    <g id="xtick_3">
     <g id="line2d_3">
      <g>
       <use style="stroke:#000000;stroke-width:0.8;" x="167.204444" xlink:href="#ma5c22f1b17" y="105.64"/>
      </g>
     </g>
     <g id="text_3">
      <!-- 1000 -->
      <defs>
       <path d="M 12.40625 8.296875 
L 28.515625 8.296875 
L 28.515625 63.921875 
L 10.984375 60.40625 
L 10.984375 69.390625 
L 28.421875 72.90625 
L 38.28125 72.90625 
L 38.28125 8.296875 
L 54.390625 8.296875 
L 54.390625 0 
L 12.40625 0 
z
" id="DejaVuSans-31"/>
      </defs>
      <g transform="translate(157.660694 118.338828)scale(0.075 -0.075)">
       <use xlink:href="#DejaVuSans-31"/>
       <use x="63.623047" xlink:href="#DejaVuSans-30"/>
       <use x="127.246094" xlink:href="#DejaVuSans-30"/>
       <use x="190.869141" xlink:href="#DejaVuSans-30"/>
      </g>
     </g>
    </g>
    <g id="text_4">
     <!-- time [ms] -->
     <defs>
      <path d="M 18.3125 70.21875 
L 18.3125 54.6875 
L 36.8125 54.6875 
L 36.8125 47.703125 
L 18.3125 47.703125 
L 18.3125 18.015625 
Q 18.3125 11.328125 20.140625 9.421875 
Q 21.96875 7.515625 27.59375 7.515625 
L 36.8125 7.515625 
L 36.8125 0 
L 27.59375 0 
Q 17.1875 0 13.234375 3.875 
Q 9.28125 7.765625 9.28125 18.015625 
L 9.28125 47.703125 
L 2.6875 47.703125 
L 2.6875 54.6875 
L 9.28125 54.6875 
L 9.28125 70.21875 
z
" id="DejaVuSans-74"/>
      <path d="M 9.421875 54.6875 
L 18.40625 54.6875 
L 18.40625 0 
L 9.421875 0 
z
M 9.421875 75.984375 
L 18.40625 75.984375 
L 18.40625 64.59375 
L 9.421875 64.59375 
z
" id="DejaVuSans-69"/>
      <path d="M 52 44.1875 
Q 55.375 50.25 60.0625 53.125 
Q 64.75 56 71.09375 56 
Q 79.640625 56 84.28125 50.015625 
Q 88.921875 44.046875 88.921875 33.015625 
L 88.921875 0 
L 79.890625 0 
L 79.890625 32.71875 
Q 79.890625 40.578125 77.09375 44.375 
Q 74.3125 48.1875 68.609375 48.1875 
Q 61.625 48.1875 57.5625 43.546875 
Q 53.515625 38.921875 53.515625 30.90625 
L 53.515625 0 
L 44.484375 0 
L 44.484375 32.71875 
Q 44.484375 40.625 41.703125 44.40625 
Q 38.921875 48.1875 33.109375 48.1875 
Q 26.21875 48.1875 22.15625 43.53125 
Q 18.109375 38.875 18.109375 30.90625 
L 18.109375 0 
L 9.078125 0 
L 9.078125 54.6875 
L 18.109375 54.6875 
L 18.109375 46.1875 
Q 21.1875 51.21875 25.484375 53.609375 
Q 29.78125 56 35.6875 56 
Q 41.65625 56 45.828125 52.96875 
Q 50 49.953125 52 44.1875 
z
" id="DejaVuSans-6d"/>
      <path d="M 56.203125 29.59375 
L 56.203125 25.203125 
L 14.890625 25.203125 
Q 15.484375 15.921875 20.484375 11.0625 
Q 25.484375 6.203125 34.421875 6.203125 
Q 39.59375 6.203125 44.453125 7.46875 
Q 49.3125 8.734375 54.109375 11.28125 
L 54.109375 2.78125 
Q 49.265625 0.734375 44.1875 -0.34375 
Q 39.109375 -1.421875 33.890625 -1.421875 
Q 20.796875 -1.421875 13.15625 6.1875 
Q 5.515625 13.8125 5.515625 26.8125 
Q 5.515625 40.234375 12.765625 48.109375 
Q 20.015625 56 32.328125 56 
Q 43.359375 56 49.78125 48.890625 
Q 56.203125 41.796875 56.203125 29.59375 
z
M 47.21875 32.234375 
Q 47.125 39.59375 43.09375 43.984375 
Q 39.0625 48.390625 32.421875 48.390625 
Q 24.90625 48.390625 20.390625 44.140625 
Q 15.875 39.890625 15.1875 32.171875 
z
" id="DejaVuSans-65"/>
      <path id="DejaVuSans-20"/>
      <path d="M 8.59375 75.984375 
L 29.296875 75.984375 
L 29.296875 69 
L 17.578125 69 
L 17.578125 -6.203125 
L 29.296875 -6.203125 
L 29.296875 -13.1875 
L 8.59375 -13.1875 
z
" id="DejaVuSans-5b"/>
      <path d="M 44.28125 53.078125 
L 44.28125 44.578125 
Q 40.484375 46.53125 36.375 47.5 
Q 32.28125 48.484375 27.875 48.484375 
Q 21.1875 48.484375 17.84375 46.4375 
Q 14.5 44.390625 14.5 40.28125 
Q 14.5 37.15625 16.890625 35.375 
Q 19.28125 33.59375 26.515625 31.984375 
L 29.59375 31.296875 
Q 39.15625 29.25 43.1875 25.515625 
Q 47.21875 21.78125 47.21875 15.09375 
Q 47.21875 7.46875 41.1875 3.015625 
Q 35.15625 -1.421875 24.609375 -1.421875 
Q 20.21875 -1.421875 15.453125 -0.5625 
Q 10.6875 0.296875 5.421875 2 
L 5.421875 11.28125 
Q 10.40625 8.6875 15.234375 7.390625 
Q 20.0625 6.109375 24.8125 6.109375 
Q 31.15625 6.109375 34.5625 8.28125 
Q 37.984375 10.453125 37.984375 14.40625 
Q 37.984375 18.0625 35.515625 20.015625 
Q 33.0625 21.96875 24.703125 23.78125 
L 21.578125 24.515625 
Q 13.234375 26.265625 9.515625 29.90625 
Q 5.8125 33.546875 5.8125 39.890625 
Q 5.8125 47.609375 11.28125 51.796875 
Q 16.75 56 26.8125 56 
Q 31.78125 56 36.171875 55.265625 
Q 40.578125 54.546875 44.28125 53.078125 
z
" id="DejaVuSans-73"/>
      <path d="M 30.421875 75.984375 
L 30.421875 -13.1875 
L 9.71875 -13.1875 
L 9.71875 -6.203125 
L 21.390625 -6.203125 
L 21.390625 69 
L 9.71875 69 
L 9.71875 75.984375 
z
" id="DejaVuSans-5d"/>
     </defs>
     <g transform="translate(100.114639 131.022129)scale(0.09375 -0.09375)">
      <use xlink:href="#DejaVuSans-74"/>
      <use x="39.208984" xlink:href="#DejaVuSans-69"/>
      <use x="66.992188" xlink:href="#DejaVuSans-6d"/>
      <use x="164.404297" xlink:href="#DejaVuSans-65"/>
      <use x="225.927734" xlink:href="#DejaVuSans-20"/>
      <use x="257.714844" xlink:href="#DejaVuSans-5b"/>
      <use x="296.728516" xlink:href="#DejaVuSans-6d"/>
      <use x="394.140625" xlink:href="#DejaVuSans-73"/>
      <use x="446.240234" xlink:href="#DejaVuSans-5d"/>
     </g>
    </g>
   </g>
   <g id="matplotlib.axis_2">
    <g id="ytick_1">
     <g id="line2d_4">
      <defs>
       <path d="M 0 0 
L -3.5 0 
" id="m45894db52e" style="stroke:#000000;stroke-width:0.8;"/>
      </defs>
      <g>
       <use style="stroke:#000000;stroke-width:0.8;" x="43.04" xlink:href="#m45894db52e" y="105.64"/>
      </g>
     </g>
     <g id="text_5">
      <!-- 0.2 -->
      <defs>
       <path d="M 10.6875 12.40625 
L 21 12.40625 
L 21 0 
L 10.6875 0 
z
" id="DejaVuSans-2e"/>
       <path d="M 19.1875 8.296875 
L 53.609375 8.296875 
L 53.609375 0 
L 7.328125 0 
L 7.328125 8.296875 
Q 12.9375 14.109375 22.625 23.890625 
Q 32.328125 33.6875 34.8125 36.53125 
Q 39.546875 41.84375 41.421875 45.53125 
Q 43.3125 49.21875 43.3125 52.78125 
Q 43.3125 58.59375 39.234375 62.25 
Q 35.15625 65.921875 28.609375 65.921875 
Q 23.96875 65.921875 18.8125 64.3125 
Q 13.671875 62.703125 7.8125 59.421875 
L 7.8125 69.390625 
Q 13.765625 71.78125 18.9375 73 
Q 24.125 74.21875 28.421875 74.21875 
Q 39.75 74.21875 46.484375 68.546875 
Q 53.21875 62.890625 53.21875 53.421875 
Q 53.21875 48.921875 51.53125 44.890625 
Q 49.859375 40.875 45.40625 35.40625 
Q 44.1875 33.984375 37.640625 27.21875 
Q 31.109375 20.453125 19.1875 8.296875 
z
" id="DejaVuSans-32"/>
      </defs>
      <g transform="translate(24.112656 108.489414)scale(0.075 -0.075)">
       <use xlink:href="#DejaVuSans-30"/>
       <use x="63.623047" xlink:href="#DejaVuSans-2e"/>
       <use x="95.410156" xlink:href="#DejaVuSans-32"/>
      </g>
     </g>
    </g>
    <g id="ytick_2">
     <g id="line2d_5">
      <g>
       <use style="stroke:#000000;stroke-width:0.8;" x="43.04" xlink:href="#m45894db52e" y="87.248"/>
      </g>
     </g>
     <g id="text_6">
      <!-- 0.3 -->
      <defs>
       <path d="M 40.578125 39.3125 
Q 47.65625 37.796875 51.625 33 
Q 55.609375 28.21875 55.609375 21.1875 
Q 55.609375 10.40625 48.1875 4.484375 
Q 40.765625 -1.421875 27.09375 -1.421875 
Q 22.515625 -1.421875 17.65625 -0.515625 
Q 12.796875 0.390625 7.625 2.203125 
L 7.625 11.71875 
Q 11.71875 9.328125 16.59375 8.109375 
Q 21.484375 6.890625 26.8125 6.890625 
Q 36.078125 6.890625 40.9375 10.546875 
Q 45.796875 14.203125 45.796875 21.1875 
Q 45.796875 27.640625 41.28125 31.265625 
Q 36.765625 34.90625 28.71875 34.90625 
L 20.21875 34.90625 
L 20.21875 43.015625 
L 29.109375 43.015625 
Q 36.375 43.015625 40.234375 45.921875 
Q 44.09375 48.828125 44.09375 54.296875 
Q 44.09375 59.90625 40.109375 62.90625 
Q 36.140625 65.921875 28.71875 65.921875 
Q 24.65625 65.921875 20.015625 65.03125 
Q 15.375 64.15625 9.8125 62.3125 
L 9.8125 71.09375 
Q 15.4375 72.65625 20.34375 73.4375 
Q 25.25 74.21875 29.59375 74.21875 
Q 40.828125 74.21875 47.359375 69.109375 
Q 53.90625 64.015625 53.90625 55.328125 
Q 53.90625 49.265625 50.4375 45.09375 
Q 46.96875 40.921875 40.578125 39.3125 
z
" id="DejaVuSans-33"/>
      </defs>
      <g transform="translate(24.112656 90.097414)scale(0.075 -0.075)">
       <use xlink:href="#DejaVuSans-30"/>
       <use x="63.623047" xlink:href="#DejaVuSans-2e"/>
       <use x="95.410156" xlink:href="#DejaVuSans-33"/>
      </g>
     </g>
    </g>
    <g id="ytick_3">
     <g id="line2d_6">
      <g>
       <use style="stroke:#000000;stroke-width:0.8;" x="43.04" xlink:href="#m45894db52e" y="68.856"/>
      </g>
     </g>
     <g id="text_7">
      <!-- 0.4 -->
      <defs>
       <path d="M 37.796875 64.3125 
L 12.890625 25.390625 
L 37.796875 25.390625 
z
M 35.203125 72.90625 
L 47.609375 72.90625 
L 47.609375 25.390625 
L 58.015625 25.390625 
L 58.015625 17.1875 
L 47.609375 17.1875 
L 47.609375 0 
L 37.796875 0 
L 37.796875 17.1875 
L 4.890625 17.1875 
L 4.890625 26.703125 
z
" id="DejaVuSans-34"/>
      </defs>
      <g transform="translate(24.112656 71.705414)scale(0.075 -0.075)">
       <use xlink:href="#DejaVuSans-30"/>
       <use x="63.623047" xlink:href="#DejaVuSans-2e"/>
       <use x="95.410156" xlink:href="#DejaVuSans-34"/>
      </g>
     </g>
    </g>
    <g id="ytick_4">
     <g id="line2d_7">
      <g>
       <use style="stroke:#000000;stroke-width:0.8;" x="43.04" xlink:href="#m45894db52e" y="50.464"/>
      </g>
     </g>
     <g id="text_8">
      <!-- 0.5 -->
      <g transform="translate(24.112656 53.313414)scale(0.075 -0.075)">
       <use xlink:href="#DejaVuSans-30"/>
       <use x="63.623047" xlink:href="#DejaVuSans-2e"/>
       <use x="95.410156" xlink:href="#DejaVuSans-35"/>
      </g>
     </g>
    </g>
    <g id="ytick_5">
     <g id="line2d_8">
      <g>
       <use style="stroke:#000000;stroke-width:0.8;" x="43.04" xlink:href="#m45894db52e" y="32.072"/>
      </g>
     </g>
     <g id="text_9">
      <!-- 0.6 -->
      <defs>
       <path d="M 33.015625 40.375 
Q 26.375 40.375 22.484375 35.828125 
Q 18.609375 31.296875 18.609375 23.390625 
Q 18.609375 15.53125 22.484375 10.953125 
Q 26.375 6.390625 33.015625 6.390625 
Q 39.65625 6.390625 43.53125 10.953125 
Q 47.40625 15.53125 47.40625 23.390625 
Q 47.40625 31.296875 43.53125 35.828125 
Q 39.65625 40.375 33.015625 40.375 
z
M 52.59375 71.296875 
L 52.59375 62.3125 
Q 48.875 64.0625 45.09375 64.984375 
Q 41.3125 65.921875 37.59375 65.921875 
Q 27.828125 65.921875 22.671875 59.328125 
Q 17.53125 52.734375 16.796875 39.40625 
Q 19.671875 43.65625 24.015625 45.921875 
Q 28.375 48.1875 33.59375 48.1875 
Q 44.578125 48.1875 50.953125 41.515625 
Q 57.328125 34.859375 57.328125 23.390625 
Q 57.328125 12.15625 50.6875 5.359375 
Q 44.046875 -1.421875 33.015625 -1.421875 
Q 20.359375 -1.421875 13.671875 8.265625 
Q 6.984375 17.96875 6.984375 36.375 
Q 6.984375 53.65625 15.1875 63.9375 
Q 23.390625 74.21875 37.203125 74.21875 
Q 40.921875 74.21875 44.703125 73.484375 
Q 48.484375 72.75 52.59375 71.296875 
z
" id="DejaVuSans-36"/>
      </defs>
      <g transform="translate(24.112656 34.921414)scale(0.075 -0.075)">
       <use xlink:href="#DejaVuSans-30"/>
       <use x="63.623047" xlink:href="#DejaVuSans-2e"/>
       <use x="95.410156" xlink:href="#DejaVuSans-36"/>
      </g>
     </g>
    </g>
    <g id="ytick_6">
     <g id="line2d_9">
      <g>
       <use style="stroke:#000000;stroke-width:0.8;" x="43.04" xlink:href="#m45894db52e" y="13.68"/>
      </g>
     </g>
     <g id="text_10">
      <!-- 0.7 -->
      <defs>
       <path d="M 8.203125 72.90625 
L 55.078125 72.90625 
L 55.078125 68.703125 
L 28.609375 0 
L 18.3125 0 
L 43.21875 64.59375 
L 8.203125 64.59375 
z
" id="DejaVuSans-37"/>
      </defs>
      <g transform="translate(24.112656 16.529414)scale(0.075 -0.075)">
       <use xlink:href="#DejaVuSans-30"/>
       <use x="63.623047" xlink:href="#DejaVuSans-2e"/>
       <use x="95.410156" xlink:href="#DejaVuSans-37"/>
      </g>
     </g>
    </g>
    <g id="text_11">
     <!-- acc -->
     <defs>
      <path d="M 34.28125 27.484375 
Q 23.390625 27.484375 19.1875 25 
Q 14.984375 22.515625 14.984375 16.5 
Q 14.984375 11.71875 18.140625 8.90625 
Q 21.296875 6.109375 26.703125 6.109375 
Q 34.1875 6.109375 38.703125 11.40625 
Q 43.21875 16.703125 43.21875 25.484375 
L 43.21875 27.484375 
z
M 52.203125 31.203125 
L 52.203125 0 
L 43.21875 0 
L 43.21875 8.296875 
Q 40.140625 3.328125 35.546875 0.953125 
Q 30.953125 -1.421875 24.3125 -1.421875 
Q 15.921875 -1.421875 10.953125 3.296875 
Q 6 8.015625 6 15.921875 
Q 6 25.140625 12.171875 29.828125 
Q 18.359375 34.515625 30.609375 34.515625 
L 43.21875 34.515625 
L 43.21875 35.40625 
Q 43.21875 41.609375 39.140625 45 
Q 35.0625 48.390625 27.6875 48.390625 
Q 23 48.390625 18.546875 47.265625 
Q 14.109375 46.140625 10.015625 43.890625 
L 10.015625 52.203125 
Q 14.9375 54.109375 19.578125 55.046875 
Q 24.21875 56 28.609375 56 
Q 40.484375 56 46.34375 49.84375 
Q 52.203125 43.703125 52.203125 31.203125 
z
" id="DejaVuSans-61"/>
      <path d="M 48.78125 52.59375 
L 48.78125 44.1875 
Q 44.96875 46.296875 41.140625 47.34375 
Q 37.3125 48.390625 33.40625 48.390625 
Q 24.65625 48.390625 19.8125 42.84375 
Q 14.984375 37.3125 14.984375 27.296875 
Q 14.984375 17.28125 19.8125 11.734375 
Q 24.65625 6.203125 33.40625 6.203125 
Q 37.3125 6.203125 41.140625 7.25 
Q 44.96875 8.296875 48.78125 10.40625 
L 48.78125 2.09375 
Q 45.015625 0.34375 40.984375 -0.53125 
Q 36.96875 -1.421875 32.421875 -1.421875 
Q 20.0625 -1.421875 12.78125 6.34375 
Q 5.515625 14.109375 5.515625 27.296875 
Q 5.515625 40.671875 12.859375 48.328125 
Q 20.21875 56 33.015625 56 
Q 37.15625 56 41.109375 55.140625 
Q 45.0625 54.296875 48.78125 52.59375 
z
" id="DejaVuSans-63"/>
     </defs>
     <g transform="translate(18.162949 67.687344)rotate(-90)scale(0.09375 -0.09375)">
      <use xlink:href="#DejaVuSans-61"/>
      <use x="61.279297" xlink:href="#DejaVuSans-63"/>
      <use x="116.259766" xlink:href="#DejaVuSans-63"/>
     </g>
    </g>
   </g>
   <g id="line2d_10">
    <path clip-path="url(#p4fa57aa73f)" d="M 51.908889 81.373595 
L 54.126111 80.793021 
L 56.343333 81.10875 
L 58.560556 81.257726 
L 60.777778 80.916247 
L 62.995 81.143082 
L 65.212222 80.935253 
L 67.429444 81.588169 
L 69.646667 81.083615 
L 71.863889 80.885594 
L 74.081111 81.079936 
L 76.298333 81.071966 
L 78.515556 81.001464 
L 80.732778 80.889273 
L 82.95 81.111816 
L 85.167222 81.141856 
L 87.384444 81.096489 
L 89.601667 81.195806 
L 91.818889 81.116107 
L 94.036111 81.26263 
L 96.253333 81.192741 
L 98.470556 81.072579 
L 100.687778 81.295736 
L 102.905 80.884368 
L 105.122222 81.224007 
L 107.339444 80.85678 
L 109.556667 81.307997 
L 111.773889 81.220942 
L 113.991111 81.014338 
L 116.208333 80.829805 
L 118.425556 81.372369 
L 120.642778 81.174962 
L 122.86 81.239947 
L 125.077222 81.214811 
L 127.294444 81.08668 
L 129.511667 81.15657 
L 131.728889 81.127142 
L 133.946111 81.21665 
L 136.163333 81.33865 
L 138.380556 81.171896 
L 140.597778 81.351525 
L 142.815 80.854941 
L 145.032222 81.22462 
L 147.249444 81.387696 
L 149.466667 81.049283 
L 151.683889 81.098941 
L 153.901111 81.26263 
L 156.118333 81.102007 
L 158.335556 81.160248 
L 160.552778 81.085454 
L 162.77 81.021695 
L 164.987222 81.143082 
L 167.204444 81.217263 
L 169.421667 80.88069 
L 171.638889 81.039474 
L 173.856111 81.188449 
L 176.073333 81.219715 
L 178.290556 81.01679 
L 180.507778 80.937705 
L 182.725 80.938318 
L 184.942222 81.041926 
L 187.159444 81.220942 
L 189.376667 81.168831 
L 191.593889 81.014951 
L 193.811111 81.044991 
" style="fill:none;stroke:#000000;stroke-linecap:square;stroke-width:0.9375;"/>
   </g>
   <g id="line2d_11">
    <path clip-path="url(#p4fa57aa73f)" d="M 51.908889 76.406496 
L 54.126111 75.701571 
L 56.343333 76.160281 
L 58.560556 76.387315 
L 60.777778 75.930978 
L 62.995 76.103084 
L 65.212222 76.117438 
L 67.429444 76.560118 
L 69.646667 75.974007 
L 71.863889 76.009917 
L 74.081111 76.109584 
L 76.298333 76.260642 
L 78.515556 76.031944 
L 80.732778 75.778208 
L 82.95 75.992327 
L 85.167222 76.272223 
L 87.384444 76.136524 
L 89.601667 76.108105 
L 91.818889 76.062712 
L 94.036111 76.316628 
L 96.253333 76.139573 
L 98.470556 76.071155 
L 100.687778 76.457388 
L 102.905 75.981766 
L 105.122222 76.425072 
L 107.339444 75.689738 
L 109.556667 76.271503 
L 111.773889 76.124575 
L 113.991111 76.019602 
L 116.208333 75.875064 
L 118.425556 76.373452 
L 120.642778 76.164997 
L 122.86 76.214894 
L 125.077222 76.381228 
L 127.294444 75.956389 
L 129.511667 76.083877 
L 131.728889 76.174499 
L 133.946111 76.441661 
L 136.163333 76.517565 
L 138.380556 76.117122 
L 140.597778 76.461801 
L 142.815 75.837792 
L 145.032222 76.138074 
L 147.249444 76.401819 
L 149.466667 76.110511 
L 151.683889 76.11523 
L 153.901111 76.286854 
L 156.118333 76.056339 
L 158.335556 76.251 
L 160.552778 75.94507 
L 162.77 76.107681 
L 164.987222 76.121687 
L 167.204444 76.25595 
L 169.421667 75.820048 
L 171.638889 76.073601 
L 173.856111 76.237521 
L 176.073333 76.359712 
L 178.290556 76.013359 
L 180.507778 75.902223 
L 182.725 75.840392 
L 184.942222 75.928352 
L 187.159444 76.45073 
L 189.376667 76.223433 
L 191.593889 76.019488 
L 193.811111 75.920983 
" style="fill:none;stroke:#000000;stroke-linecap:square;stroke-width:0.333333;"/>
   </g>
   <g id="line2d_12">
    <path clip-path="url(#p4fa57aa73f)" d="M 51.908889 86.340694 
L 54.126111 85.884471 
L 56.343333 86.05722 
L 58.560556 86.128136 
L 60.777778 85.901517 
L 62.995 86.183081 
L 65.212222 85.753067 
L 67.429444 86.616219 
L 69.646667 86.193222 
L 71.863889 85.761271 
L 74.081111 86.050288 
L 76.298333 85.883291 
L 78.515556 85.970984 
L 80.732778 86.000338 
L 82.95 86.231305 
L 85.167222 86.011489 
L 87.384444 86.056454 
L 89.601667 86.283506 
L 91.818889 86.169502 
L 94.036111 86.208632 
L 96.253333 86.245908 
L 98.470556 86.074004 
L 100.687778 86.134083 
L 102.905 85.78697 
L 105.122222 86.022942 
L 107.339444 86.023822 
L 109.556667 86.344491 
L 111.773889 86.317308 
L 113.991111 86.009074 
L 116.208333 85.784546 
L 118.425556 86.371286 
L 120.642778 86.184927 
L 122.86 86.264999 
L 125.077222 86.048394 
L 127.294444 86.216971 
L 129.511667 86.229262 
L 131.728889 86.079786 
L 133.946111 85.991639 
L 136.163333 86.159736 
L 138.380556 86.22667 
L 140.597778 86.241248 
L 142.815 85.87209 
L 145.032222 86.311166 
L 147.249444 86.373572 
L 149.466667 85.988055 
L 151.683889 86.082653 
L 153.901111 86.238407 
L 156.118333 86.147675 
L 158.335556 86.069496 
L 160.552778 86.225838 
L 162.77 85.935709 
L 164.987222 86.164477 
L 167.204444 86.178576 
L 169.421667 85.941331 
L 171.638889 86.005347 
L 173.856111 86.139377 
L 176.073333 86.079719 
L 178.290556 86.020222 
L 180.507778 85.973186 
L 182.725 86.036244 
L 184.942222 86.1555 
L 187.159444 85.991153 
L 189.376667 86.114229 
L 191.593889 86.010414 
L 193.811111 86.168999 
" style="fill:none;stroke:#000000;stroke-linecap:square;stroke-width:0.333333;"/>
   </g>
   <g id="line2d_13">
    <path clip-path="url(#p4fa57aa73f)" d="M 51.908889 78.665067 
L 54.126111 76.94848 
L 56.343333 76.94848 
L 58.560556 74.250987 
L 60.777778 73.760533 
L 62.995 61.68312 
L 65.212222 57.514267 
L 67.429444 58.801707 
L 69.646667 62.357493 
L 71.863889 61.928347 
L 74.081111 64.932373 
L 76.298333 65.238907 
L 78.515556 70.388667 
L 80.732778 73.08616 
L 82.95 76.76456 
L 85.167222 79.032907 
L 87.384444 77.50024 
L 89.601667 75.84496 
L 91.818889 78.726373 
L 94.036111 70.756507 
L 96.253333 75.047973 
L 98.470556 75.66104 
L 100.687778 76.02888 
L 102.905 74.250987 
L 105.122222 82.036933 
L 107.339444 79.094213 
L 109.556667 78.726373 
L 111.773889 76.335413 
L 113.991111 76.274107 
L 116.208333 74.92536 
L 118.425556 78.481147 
L 120.642778 73.699227 
L 122.86 74.250987 
L 125.077222 76.335413 
L 127.294444 74.986667 
L 129.511667 69.285147 
L 131.728889 74.74144 
L 133.946111 71.43088 
L 136.163333 70.51128 
L 138.380556 69.162533 
L 140.597778 61.86704 
L 142.815 57.514267 
L 145.032222 53.651947 
L 147.249444 46.41776 
L 149.466667 47.030827 
L 151.683889 39.183573 
L 153.901111 37.834827 
L 156.118333 46.23384 
L 158.335556 52.916267 
L 160.552778 67.9364 
L 162.77 72.90224 
L 164.987222 78.726373 
L 167.204444 85.04096 
L 169.421667 89.63896 
L 171.638889 82.772613 
L 173.856111 86.267093 
L 176.073333 90.435947 
L 178.290556 90.497253 
L 180.507778 91.416853 
L 182.725 92.704293 
L 184.942222 91.29424 
L 187.159444 93.6852 
L 189.376667 89.0872 
L 191.593889 80.504267 
L 193.811111 75.906267 
" style="fill:none;stroke:#ff0000;stroke-linecap:square;stroke-width:0.9375;"/>
   </g>
   <g id="line2d_14">
    <path clip-path="url(#p4fa57aa73f)" d="M 51.908889 69.493622 
L 54.126111 71.043913 
L 56.343333 65.54544 
L 58.560556 62.642152 
L 60.777778 55.514203 
L 62.995 46.158969 
L 65.212222 40.634881 
L 67.429444 44.182412 
L 69.646667 47.101615 
L 71.863889 50.289603 
L 74.081111 50.759524 
L 76.298333 54.675464 
L 78.515556 64.493974 
L 80.732778 64.094957 
L 82.95 65.595804 
L 85.167222 66.755644 
L 87.384444 69.439171 
L 89.601667 63.666055 
L 91.818889 67.699862 
L 94.036111 56.991965 
L 96.253333 60.629954 
L 98.470556 63.822502 
L 100.687778 65.192851 
L 102.905 64.15938 
L 105.122222 75.269555 
L 107.339444 68.912691 
L 109.556667 66.528195 
L 111.773889 63.409153 
L 113.991111 60.604406 
L 116.208333 60.987158 
L 118.425556 63.900854 
L 120.642778 57.789113 
L 122.86 61.675496 
L 125.077222 61.93996 
L 127.294444 58.657903 
L 129.511667 56.607705 
L 131.728889 64.041012 
L 133.946111 58.798731 
L 136.163333 56.437293 
L 138.380556 54.602361 
L 140.597778 47.140163 
L 142.815 41.682777 
L 145.032222 41.11537 
L 147.249444 34.048998 
L 149.466667 35.446624 
L 151.683889 27.451073 
L 153.901111 26.991343 
L 156.118333 31.498671 
L 158.335556 37.992154 
L 160.552778 55.77278 
L 162.77 62.76085 
L 164.987222 65.965011 
L 167.204444 73.541424 
L 169.421667 81.128808 
L 171.638889 69.787607 
L 173.856111 71.90981 
L 176.073333 78.111019 
L 178.290556 78.73324 
L 180.507778 79.517041 
L 182.725 80.067236 
L 184.942222 80.265172 
L 187.159444 84.262104 
L 189.376667 78.317449 
L 191.593889 71.448295 
L 193.811111 63.976645 
" style="fill:none;stroke:#ff0000;stroke-linecap:square;stroke-width:0.333333;"/>
   </g>
   <g id="line2d_15">
    <path clip-path="url(#p4fa57aa73f)" d="M 51.908889 87.836511 
L 54.126111 82.853047 
L 56.343333 88.35152 
L 58.560556 85.859821 
L 60.777778 92.006864 
L 62.995 77.207271 
L 65.212222 74.393652 
L 67.429444 73.421001 
L 69.646667 77.613371 
L 71.863889 73.567091 
L 74.081111 79.105223 
L 76.298333 75.80235 
L 78.515556 76.283359 
L 80.732778 82.077363 
L 82.95 87.933316 
L 85.167222 91.310169 
L 87.384444 85.561309 
L 89.601667 88.023865 
L 91.818889 89.752885 
L 94.036111 84.521048 
L 96.253333 89.465993 
L 98.470556 87.499578 
L 100.687778 86.864909 
L 102.905 84.342593 
L 105.122222 88.804312 
L 107.339444 89.275735 
L 109.556667 90.924551 
L 111.773889 89.261674 
L 113.991111 91.943808 
L 116.208333 88.863562 
L 118.425556 93.061439 
L 120.642778 89.60934 
L 122.86 86.826477 
L 125.077222 90.730866 
L 127.294444 91.31543 
L 129.511667 81.962589 
L 131.728889 85.441868 
L 133.946111 84.063029 
L 136.163333 84.585267 
L 138.380556 83.722705 
L 140.597778 76.593917 
L 142.815 73.345756 
L 145.032222 66.188523 
L 147.249444 58.786522 
L 149.466667 58.615029 
L 151.683889 50.916074 
L 153.901111 48.678311 
L 156.118333 60.969009 
L 158.335556 67.84038 
L 160.552778 80.10002 
L 162.77 83.04363 
L 164.987222 91.487736 
L 167.204444 96.540496 
L 169.421667 98.149112 
L 171.638889 95.75762 
L 173.856111 100.624376 
L 176.073333 102.760874 
L 178.290556 102.261266 
L 180.507778 103.316665 
L 182.725 105.341351 
L 184.942222 102.323308 
L 187.159444 103.108296 
L 189.376667 99.856951 
L 191.593889 89.560239 
L 193.811111 87.835889 
" style="fill:none;stroke:#ff0000;stroke-linecap:square;stroke-width:0.333333;"/>
   </g>
   <g id="patch_3">
    <path d="M 43.04 105.64 
L 43.04 13.68 
" style="fill:none;stroke:#000000;stroke-linecap:square;stroke-linejoin:miter;stroke-width:0.8;"/>
   </g>
   <g id="patch_4">
    <path d="M 202.68 105.64 
L 202.68 13.68 
" style="fill:none;stroke:#000000;stroke-linecap:square;stroke-linejoin:miter;stroke-width:0.8;"/>
   </g>
   <g id="patch_5">
    <path d="M 43.04 105.64 
L 202.68 105.64 
" style="fill:none;stroke:#000000;stroke-linecap:square;stroke-linejoin:miter;stroke-width:0.8;"/>
   </g>
   <g id="patch_6">
    <path d="M 43.04 13.68 
L 202.68 13.68 
" style="fill:none;stroke:#000000;stroke-linecap:square;stroke-linejoin:miter;stroke-width:0.8;"/>
   </g>
  </g>
 </g>
 <defs>
  <clipPath id="p4fa57aa73f">
   <rect height="91.96" width="159.64" x="43.04" y="13.68"/>
  </clipPath>
 </defs>
</svg>
